M48
; DRILL file {KiCad 5.1.9-73d0e3b20d~88~ubuntu18.04.1} date Sat Apr 10 14:05:45 2021
; FORMAT={-:-/ absolute / inch / decimal}
; #@! TF.CreationDate,2021-04-10T14:05:45-05:00
; #@! TF.GenerationSoftware,Kicad,Pcbnew,5.1.9-73d0e3b20d~88~ubuntu18.04.1
; #@! TF.FileFunction,Plated,1,2,PTH
FMAT,2
INCH
T1C0.0430
T2C0.0579
%
G90
G05
T1
X9.5125Y-1.2
X9.5125Y-1.3
X9.5125Y-1.4
X9.5125Y-1.5
X9.5125Y-1.6
X9.5125Y-1.7
X9.5125Y-1.8
X9.5125Y-1.9
X9.5125Y-2.0
X9.5125Y-2.1
X9.5125Y-2.2
X9.5215Y-2.3
X9.6125Y-2.3
X9.7125Y-2.3
X9.8125Y-2.3
X9.9125Y-2.3
X10.0125Y-2.3
X10.1125Y-1.2
X10.1125Y-1.3
X10.1125Y-1.4
X10.1125Y-1.5
X10.1125Y-1.6
X10.1125Y-1.7
X10.1125Y-1.8
X10.1125Y-1.9
X10.1125Y-2.0
X10.1125Y-2.1
X10.1125Y-2.2
X10.1125Y-2.3
T2
X1.4125Y-2.65
X1.4125Y-3.4
X1.4125Y-4.15
X1.4125Y-4.9
X1.4125Y-5.65
X1.4125Y-6.4
X1.6625Y-2.55
X1.6625Y-3.3
X1.6625Y-4.05
X1.6625Y-4.8
X1.6625Y-5.55
X1.6625Y-6.3
X2.1625Y-2.65
X2.1625Y-3.4
X2.1625Y-4.15
X2.1625Y-4.9
X2.1625Y-5.65
X2.1625Y-6.4
X2.4125Y-2.55
X2.4125Y-3.3
X2.4125Y-4.05
X2.4125Y-4.8
X2.4125Y-5.55
X2.4125Y-6.3
X2.9125Y-2.65
X2.9125Y-3.4
X2.9125Y-4.15
X2.9125Y-4.9
X2.9125Y-5.65
X2.9125Y-6.4
X3.1625Y-2.55
X3.1625Y-3.3
X3.1625Y-4.05
X3.1625Y-4.8
X3.1625Y-5.55
X3.1625Y-6.3
X3.6625Y-2.65
X3.6625Y-3.4
X3.6625Y-4.15
X3.6625Y-4.9
X3.6625Y-5.65
X3.9125Y-2.55
X3.9125Y-3.3
X3.9125Y-4.05
X3.9125Y-4.8
X3.9125Y-5.55
X4.3187Y-6.4
X4.4125Y-2.65
X4.4125Y-3.4
X4.4125Y-4.15
X4.4125Y-4.9
X4.4125Y-5.65
X4.5687Y-6.3
X4.6625Y-2.55
X4.6625Y-3.3
X4.6625Y-4.05
X4.6625Y-4.8
X4.6625Y-5.55
X5.1625Y-2.65
X5.1625Y-3.4
X5.1625Y-4.15
X5.1625Y-4.9
X5.1625Y-5.65
X5.4125Y-2.55
X5.4125Y-3.3
X5.4125Y-4.05
X5.4125Y-4.8
X5.4125Y-5.55
X5.9125Y-2.65
X5.9125Y-3.4
X5.9125Y-4.15
X5.9125Y-4.9
X5.9125Y-5.65
X5.9125Y-6.4
X6.1625Y-2.55
X6.1625Y-3.3
X6.1625Y-4.05
X6.1625Y-4.8
X6.1625Y-5.55
X6.1625Y-6.3
X6.6625Y-2.65
X6.6625Y-3.4
X6.6625Y-4.15
X6.6625Y-4.9
X6.6625Y-5.65
X6.9125Y-2.55
X6.9125Y-3.3
X6.9125Y-4.05
X6.9125Y-4.8
X6.9125Y-5.55
X7.4125Y-2.65
X7.4125Y-3.4
X7.4125Y-4.15
X7.4125Y-4.9
X7.4125Y-5.65
X7.5062Y-6.4
X7.6625Y-2.55
X7.6625Y-3.3
X7.6625Y-4.05
X7.6625Y-4.8
X7.6625Y-5.55
X7.7562Y-6.3
X8.1625Y-2.65
X8.1625Y-3.4
X8.1625Y-4.15
X8.1625Y-4.9
X8.1625Y-5.65
X8.4125Y-2.55
X8.4125Y-3.3
X8.4125Y-4.05
X8.4125Y-4.8
X8.4125Y-5.55
X8.9125Y-2.65
X8.9125Y-3.4
X8.9125Y-4.15
X8.9125Y-4.9
X8.9125Y-5.65
X8.9125Y-6.4
X9.1625Y-2.55
X9.1625Y-3.3
X9.1625Y-4.05
X9.1625Y-4.8
X9.1625Y-5.55
X9.1625Y-6.3
X9.6625Y-2.65
X9.6625Y-3.4
X9.6625Y-4.15
X9.6625Y-4.9
X9.6625Y-5.65
X9.6625Y-6.4
X9.9125Y-2.55
X9.9125Y-3.3
X9.9125Y-4.05
X9.9125Y-4.8
X9.9125Y-5.55
X9.9125Y-6.3
X10.4125Y-2.65
X10.4125Y-3.4
X10.4125Y-4.15
X10.4125Y-5.65
X10.4125Y-6.4
X10.6625Y-2.55
X10.6625Y-3.3
X10.6625Y-4.05
X10.6625Y-5.55
X10.6625Y-6.3
X10.7875Y-4.9
X11.0375Y-4.8
X11.1625Y-2.65
X11.1625Y-3.4
X11.1625Y-4.15
X11.1625Y-5.65
X11.1625Y-6.4
X11.4125Y-2.55
X11.4125Y-3.3
X11.4125Y-4.05
X11.4125Y-5.55
X11.4125Y-6.3
T0
M30
