M48
; DRILL file {KiCad 5.1.9-73d0e3b20d~88~ubuntu18.04.1} date Sat Apr 10 14:05:45 2021
; FORMAT={-:-/ absolute / inch / decimal}
; #@! TF.CreationDate,2021-04-10T14:05:45-05:00
; #@! TF.GenerationSoftware,Kicad,Pcbnew,5.1.9-73d0e3b20d~88~ubuntu18.04.1
; #@! TF.FileFunction,NonPlated,1,2,NPTH
FMAT,2
INCH
T1C0.0689
T2C0.0866
T3C0.1200
T4C0.1570
%
G90
G05
T1
X1.3625Y-2.75
X1.3625Y-3.5
X1.3625Y-4.25
X1.3625Y-5.0
X1.3625Y-5.75
X1.3625Y-6.5
X1.7625Y-2.75
X1.7625Y-3.5
X1.7625Y-4.25
X1.7625Y-5.0
X1.7625Y-5.75
X1.7625Y-6.5
X2.1125Y-2.75
X2.1125Y-3.5
X2.1125Y-4.25
X2.1125Y-5.0
X2.1125Y-5.75
X2.1125Y-6.5
X2.5125Y-2.75
X2.5125Y-3.5
X2.5125Y-4.25
X2.5125Y-5.0
X2.5125Y-5.75
X2.5125Y-6.5
X2.8625Y-2.75
X2.8625Y-3.5
X2.8625Y-4.25
X2.8625Y-5.0
X2.8625Y-5.75
X2.8625Y-6.5
X3.2625Y-2.75
X3.2625Y-3.5
X3.2625Y-4.25
X3.2625Y-5.0
X3.2625Y-5.75
X3.2625Y-6.5
X3.6125Y-2.75
X3.6125Y-3.5
X3.6125Y-4.25
X3.6125Y-5.0
X3.6125Y-5.75
X4.0125Y-2.75
X4.0125Y-3.5
X4.0125Y-4.25
X4.0125Y-5.0
X4.0125Y-5.75
X4.2687Y-6.5
X4.3625Y-2.75
X4.3625Y-3.5
X4.3625Y-4.25
X4.3625Y-5.0
X4.3625Y-5.75
X4.6688Y-6.5
X4.7625Y-2.75
X4.7625Y-3.5
X4.7625Y-4.25
X4.7625Y-5.0
X4.7625Y-5.75
X5.1125Y-2.75
X5.1125Y-3.5
X5.1125Y-4.25
X5.1125Y-5.0
X5.1125Y-5.75
X5.5125Y-2.75
X5.5125Y-3.5
X5.5125Y-4.25
X5.5125Y-5.0
X5.5125Y-5.75
X5.8625Y-2.75
X5.8625Y-3.5
X5.8625Y-4.25
X5.8625Y-5.0
X5.8625Y-5.75
X5.8625Y-6.5
X6.2625Y-2.75
X6.2625Y-3.5
X6.2625Y-4.25
X6.2625Y-5.0
X6.2625Y-5.75
X6.2625Y-6.5
X6.6125Y-2.75
X6.6125Y-3.5
X6.6125Y-4.25
X6.6125Y-5.0
X6.6125Y-5.75
X7.0125Y-2.75
X7.0125Y-3.5
X7.0125Y-4.25
X7.0125Y-5.0
X7.0125Y-5.75
X7.3625Y-2.75
X7.3625Y-3.5
X7.3625Y-4.25
X7.3625Y-5.0
X7.3625Y-5.75
X7.4562Y-6.5
X7.7625Y-2.75
X7.7625Y-3.5
X7.7625Y-4.25
X7.7625Y-5.0
X7.7625Y-5.75
X7.8563Y-6.5
X8.1125Y-2.75
X8.1125Y-3.5
X8.1125Y-4.25
X8.1125Y-5.0
X8.1125Y-5.75
X8.5125Y-2.75
X8.5125Y-3.5
X8.5125Y-4.25
X8.5125Y-5.0
X8.5125Y-5.75
X8.8625Y-2.75
X8.8625Y-3.5
X8.8625Y-4.25
X8.8625Y-5.0
X8.8625Y-5.75
X8.8625Y-6.5
X9.2625Y-2.75
X9.2625Y-3.5
X9.2625Y-4.25
X9.2625Y-5.0
X9.2625Y-5.75
X9.2625Y-6.5
X9.6125Y-2.75
X9.6125Y-3.5
X9.6125Y-4.25
X9.6125Y-5.0
X9.6125Y-5.75
X9.6125Y-6.5
X10.0125Y-2.75
X10.0125Y-3.5
X10.0125Y-4.25
X10.0125Y-5.0
X10.0125Y-5.75
X10.0125Y-6.5
X10.3625Y-2.75
X10.3625Y-3.5
X10.3625Y-4.25
X10.3625Y-5.75
X10.3625Y-6.5
X10.7375Y-5.0
X10.7625Y-2.75
X10.7625Y-3.5
X10.7625Y-4.25
X10.7625Y-5.75
X10.7625Y-6.5
X11.1125Y-2.75
X11.1125Y-3.5
X11.1125Y-4.25
X11.1125Y-5.75
X11.1125Y-6.5
X11.1375Y-5.0
X11.5125Y-2.75
X11.5125Y-3.5
X11.5125Y-4.25
X11.5125Y-5.75
X11.5125Y-6.5
T2
X1.25Y-1.25
X1.25Y-2.0938
X1.25Y-6.8125
X11.75Y-1.25
X11.75Y-2.0938
X11.75Y-6.8125
T3
X3.8125Y-6.775
X4.0Y-6.225
X4.9375Y-6.225
X7.1875Y-6.225
X8.125Y-6.225
X8.3125Y-6.775
X10.4688Y-4.725
X11.4062Y-4.725
T4
X1.5625Y-2.75
X1.5625Y-3.5
X1.5625Y-4.25
X1.5625Y-5.0
X1.5625Y-5.75
X1.5625Y-6.5
X2.3125Y-2.75
X2.3125Y-3.5
X2.3125Y-4.25
X2.3125Y-5.0
X2.3125Y-5.75
X2.3125Y-6.5
X3.0625Y-2.75
X3.0625Y-3.5
X3.0625Y-4.25
X3.0625Y-5.0
X3.0625Y-5.75
X3.0625Y-6.5
X3.8125Y-2.75
X3.8125Y-3.5
X3.8125Y-4.25
X3.8125Y-5.0
X3.8125Y-5.75
X3.8125Y-6.175
X4.0Y-6.825
X4.4688Y-6.5
X4.5625Y-2.75
X4.5625Y-3.5
X4.5625Y-4.25
X4.5625Y-5.0
X4.5625Y-5.75
X4.9375Y-6.825
X5.3125Y-2.75
X5.3125Y-3.5
X5.3125Y-4.25
X5.3125Y-5.0
X5.3125Y-5.75
X6.0625Y-2.75
X6.0625Y-3.5
X6.0625Y-4.25
X6.0625Y-5.0
X6.0625Y-5.75
X6.0625Y-6.5
X6.8125Y-2.75
X6.8125Y-3.5
X6.8125Y-4.25
X6.8125Y-5.0
X6.8125Y-5.75
X7.1875Y-6.825
X7.5625Y-2.75
X7.5625Y-3.5
X7.5625Y-4.25
X7.5625Y-5.0
X7.5625Y-5.75
X7.6562Y-6.5
X8.125Y-6.825
X8.3125Y-2.75
X8.3125Y-3.5
X8.3125Y-4.25
X8.3125Y-5.0
X8.3125Y-5.75
X8.3125Y-6.175
X9.0625Y-2.75
X9.0625Y-3.5
X9.0625Y-4.25
X9.0625Y-5.0
X9.0625Y-5.75
X9.0625Y-6.5
X9.8125Y-2.75
X9.8125Y-3.5
X9.8125Y-4.25
X9.8125Y-5.0
X9.8125Y-5.75
X9.8125Y-6.5
X10.4688Y-5.325
X10.5625Y-2.75
X10.5625Y-3.5
X10.5625Y-4.25
X10.5625Y-5.75
X10.5625Y-6.5
X10.9375Y-5.0
X11.3125Y-2.75
X11.3125Y-3.5
X11.3125Y-4.25
X11.3125Y-5.75
X11.3125Y-6.5
X11.4062Y-5.325
T0
M30
