G04 #@! TF.GenerationSoftware,KiCad,Pcbnew,5.1.9-73d0e3b20d~88~ubuntu18.04.1*
G04 #@! TF.CreationDate,2021-04-10T14:05:51-05:00*
G04 #@! TF.ProjectId,keyboard,6b657962-6f61-4726-942e-6b696361645f,rev?*
G04 #@! TF.SameCoordinates,Original*
G04 #@! TF.FileFunction,Paste,Bot*
G04 #@! TF.FilePolarity,Positive*
%FSLAX46Y46*%
G04 Gerber Fmt 4.6, Leading zero omitted, Abs format (unit mm)*
G04 Created by KiCad (PCBNEW 5.1.9-73d0e3b20d~88~ubuntu18.04.1) date 2021-04-10 14:05:51*
%MOMM*%
%LPD*%
G01*
G04 APERTURE LIST*
%ADD10R,0.450000X0.600000*%
G04 APERTURE END LIST*
D10*
X47625000Y-92768750D03*
X47625000Y-90668750D03*
X66675000Y-149918750D03*
X66675000Y-147818750D03*
X161925000Y-111818750D03*
X161925000Y-109718750D03*
X85725000Y-149918750D03*
X85725000Y-147818750D03*
X85725000Y-111818750D03*
X85725000Y-109718750D03*
X123825000Y-150050000D03*
X123825000Y-147950000D03*
X276225000Y-149918750D03*
X276225000Y-147818750D03*
X180975000Y-111818750D03*
X180975000Y-109718750D03*
X47625000Y-111750000D03*
X47625000Y-109650000D03*
X142875000Y-111762500D03*
X142875000Y-109662500D03*
X66675000Y-168968750D03*
X66675000Y-166868750D03*
X295275000Y-149918750D03*
X295275000Y-147818750D03*
X202406250Y-168968750D03*
X202406250Y-166868750D03*
X161925000Y-168968750D03*
X161925000Y-166868750D03*
X121443750Y-168968750D03*
X121443750Y-166868750D03*
X238125000Y-150050000D03*
X238125000Y-147950000D03*
X47625000Y-149918750D03*
X47625000Y-147818750D03*
X257175000Y-150050000D03*
X257175000Y-147950000D03*
X238125000Y-130787500D03*
X238125000Y-128687500D03*
X85725000Y-130868750D03*
X85725000Y-128768750D03*
X295275000Y-168887500D03*
X295275000Y-166787500D03*
X123825000Y-111750000D03*
X123825000Y-109650000D03*
X257175000Y-130868750D03*
X257175000Y-128768750D03*
X66675000Y-111750000D03*
X66675000Y-109650000D03*
X238125000Y-111818750D03*
X238125000Y-109718750D03*
X276225000Y-111818750D03*
X276225000Y-109718750D03*
X219075000Y-111818750D03*
X219075000Y-109718750D03*
X161925000Y-149918750D03*
X161925000Y-147818750D03*
X257175000Y-92768750D03*
X257175000Y-90668750D03*
X238125000Y-168900000D03*
X238125000Y-166800000D03*
X180975000Y-149918750D03*
X180975000Y-147818750D03*
X257175000Y-168968750D03*
X257175000Y-166868750D03*
X219075000Y-130868750D03*
X219075000Y-128768750D03*
X200025000Y-130868750D03*
X200025000Y-128768750D03*
X180975000Y-130800000D03*
X180975000Y-128700000D03*
X200025000Y-111818750D03*
X200025000Y-109718750D03*
X161925000Y-130800000D03*
X161925000Y-128700000D03*
X142875000Y-130868750D03*
X142875000Y-128768750D03*
X123825000Y-130787500D03*
X123825000Y-128687500D03*
X295275000Y-73468750D03*
X295275000Y-71368750D03*
X276225000Y-73468750D03*
X276225000Y-71368750D03*
X257175000Y-73468750D03*
X257175000Y-71368750D03*
X238125000Y-73468750D03*
X238125000Y-71368750D03*
X219075000Y-73468750D03*
X219075000Y-71368750D03*
X200000000Y-73550000D03*
X200000000Y-71450000D03*
X180975000Y-73468750D03*
X180975000Y-71368750D03*
X161925000Y-73468750D03*
X161925000Y-71368750D03*
X142875000Y-73468750D03*
X142875000Y-71368750D03*
X123825000Y-73468750D03*
X123825000Y-71368750D03*
X104775000Y-73550000D03*
X104775000Y-71450000D03*
X85725000Y-73550000D03*
X85725000Y-71450000D03*
X66675000Y-73500000D03*
X66675000Y-71400000D03*
X47600000Y-73550000D03*
X47600000Y-71450000D03*
X276225000Y-92768750D03*
X276225000Y-90668750D03*
X285750000Y-130800000D03*
X285750000Y-128700000D03*
X104775000Y-111818750D03*
X104775000Y-109718750D03*
X276225000Y-168968750D03*
X276225000Y-166868750D03*
X219075000Y-149918750D03*
X219075000Y-147818750D03*
X104775000Y-130868750D03*
X104775000Y-128768750D03*
X47625000Y-168900000D03*
X47625000Y-166800000D03*
X47625000Y-130800000D03*
X47625000Y-128700000D03*
X200025000Y-150050000D03*
X200025000Y-147950000D03*
X257175000Y-111750000D03*
X257175000Y-109650000D03*
X104775000Y-150050000D03*
X104775000Y-147950000D03*
X295275000Y-111762500D03*
X295275000Y-109662500D03*
X295275000Y-92712500D03*
X295275000Y-90612500D03*
X142875000Y-150050000D03*
X142875000Y-147950000D03*
X85725000Y-168912500D03*
X85725000Y-166812500D03*
X66675000Y-130800000D03*
X66675000Y-128700000D03*
X219075000Y-92768750D03*
X219075000Y-90668750D03*
X200025000Y-92768750D03*
X200025000Y-90668750D03*
X180975000Y-92768750D03*
X180975000Y-90668750D03*
X161925000Y-92768750D03*
X161925000Y-90668750D03*
X142875000Y-92800000D03*
X142875000Y-90700000D03*
X123825000Y-92800000D03*
X123825000Y-90700000D03*
X104750000Y-92800000D03*
X104750000Y-90700000D03*
X85725000Y-92800000D03*
X85725000Y-90700000D03*
X66675000Y-92800000D03*
X66675000Y-90700000D03*
X238125000Y-92768750D03*
X238125000Y-90668750D03*
M02*
