G04 #@! TF.GenerationSoftware,KiCad,Pcbnew,5.1.9-73d0e3b20d~88~ubuntu18.04.1*
G04 #@! TF.CreationDate,2021-04-10T14:05:51-05:00*
G04 #@! TF.ProjectId,keyboard,6b657962-6f61-4726-942e-6b696361645f,rev?*
G04 #@! TF.SameCoordinates,Original*
G04 #@! TF.FileFunction,Soldermask,Top*
G04 #@! TF.FilePolarity,Negative*
%FSLAX46Y46*%
G04 Gerber Fmt 4.6, Leading zero omitted, Abs format (unit mm)*
G04 Created by KiCad (PCBNEW 5.1.9-73d0e3b20d~88~ubuntu18.04.1) date 2021-04-10 14:05:51*
%MOMM*%
%LPD*%
G01*
G04 APERTURE LIST*
%ADD10C,0.300000*%
%ADD11C,2.200000*%
%ADD12C,3.987800*%
%ADD13C,1.750000*%
%ADD14C,3.048000*%
%ADD15C,1.752600*%
%ADD16R,1.752600X1.752600*%
G04 APERTURE END LIST*
D10*
X228948214Y-30778571D02*
X228760714Y-32278571D01*
X228939285Y-30850000D02*
X229091071Y-30778571D01*
X229376785Y-30778571D01*
X229510714Y-30850000D01*
X229573214Y-30921428D01*
X229626785Y-31064285D01*
X229573214Y-31492857D01*
X229483928Y-31635714D01*
X229403571Y-31707142D01*
X229251785Y-31778571D01*
X228966071Y-31778571D01*
X228832142Y-31707142D01*
X230394642Y-31778571D02*
X230260714Y-31707142D01*
X230198214Y-31635714D01*
X230144642Y-31492857D01*
X230198214Y-31064285D01*
X230287500Y-30921428D01*
X230367857Y-30850000D01*
X230519642Y-30778571D01*
X230733928Y-30778571D01*
X230867857Y-30850000D01*
X230930357Y-30921428D01*
X230983928Y-31064285D01*
X230930357Y-31492857D01*
X230841071Y-31635714D01*
X230760714Y-31707142D01*
X230608928Y-31778571D01*
X230394642Y-31778571D01*
X231475000Y-31707142D02*
X231608928Y-31778571D01*
X231894642Y-31778571D01*
X232046428Y-31707142D01*
X232135714Y-31564285D01*
X232144642Y-31492857D01*
X232091071Y-31350000D01*
X231957142Y-31278571D01*
X231742857Y-31278571D01*
X231608928Y-31207142D01*
X231555357Y-31064285D01*
X231564285Y-30992857D01*
X231653571Y-30850000D01*
X231805357Y-30778571D01*
X232019642Y-30778571D01*
X232153571Y-30850000D01*
X232751785Y-31778571D02*
X232876785Y-30778571D01*
X232939285Y-30278571D02*
X232858928Y-30350000D01*
X232921428Y-30421428D01*
X233001785Y-30350000D01*
X232939285Y-30278571D01*
X232921428Y-30421428D01*
X233376785Y-30778571D02*
X233948214Y-30778571D01*
X233653571Y-30278571D02*
X233492857Y-31564285D01*
X233546428Y-31707142D01*
X233680357Y-31778571D01*
X233823214Y-31778571D01*
X234323214Y-31778571D02*
X234448214Y-30778571D01*
X234412500Y-31064285D02*
X234501785Y-30921428D01*
X234582142Y-30850000D01*
X234733928Y-30778571D01*
X234876785Y-30778571D01*
X235466071Y-31778571D02*
X235332142Y-31707142D01*
X235269642Y-31635714D01*
X235216071Y-31492857D01*
X235269642Y-31064285D01*
X235358928Y-30921428D01*
X235439285Y-30850000D01*
X235591071Y-30778571D01*
X235805357Y-30778571D01*
X235939285Y-30850000D01*
X236001785Y-30921428D01*
X236055357Y-31064285D01*
X236001785Y-31492857D01*
X235912500Y-31635714D01*
X235832142Y-31707142D01*
X235680357Y-31778571D01*
X235466071Y-31778571D01*
X236733928Y-30778571D02*
X236608928Y-31778571D01*
X236716071Y-30921428D02*
X236796428Y-30850000D01*
X236948214Y-30778571D01*
X237162500Y-30778571D01*
X237296428Y-30850000D01*
X237350000Y-30992857D01*
X237251785Y-31778571D01*
X214680357Y-34328571D02*
X214867857Y-32828571D01*
X214796428Y-33400000D02*
X214948214Y-33328571D01*
X215233928Y-33328571D01*
X215367857Y-33400000D01*
X215430357Y-33471428D01*
X215483928Y-33614285D01*
X215430357Y-34042857D01*
X215341071Y-34185714D01*
X215260714Y-34257142D01*
X215108928Y-34328571D01*
X214823214Y-34328571D01*
X214689285Y-34257142D01*
X216019642Y-33328571D02*
X216251785Y-34328571D01*
X216733928Y-33328571D02*
X216251785Y-34328571D01*
X216064285Y-34685714D01*
X215983928Y-34757142D01*
X215832142Y-34828571D01*
X218966071Y-34328571D02*
X219064285Y-33542857D01*
X219010714Y-33400000D01*
X218876785Y-33328571D01*
X218591071Y-33328571D01*
X218439285Y-33400000D01*
X218975000Y-34257142D02*
X218823214Y-34328571D01*
X218466071Y-34328571D01*
X218332142Y-34257142D01*
X218278571Y-34114285D01*
X218296428Y-33971428D01*
X218385714Y-33828571D01*
X218537500Y-33757142D01*
X218894642Y-33757142D01*
X219046428Y-33685714D01*
X219617857Y-34257142D02*
X219751785Y-34328571D01*
X220037500Y-34328571D01*
X220189285Y-34257142D01*
X220278571Y-34114285D01*
X220287500Y-34042857D01*
X220233928Y-33900000D01*
X220100000Y-33828571D01*
X219885714Y-33828571D01*
X219751785Y-33757142D01*
X219698214Y-33614285D01*
X219707142Y-33542857D01*
X219796428Y-33400000D01*
X219948214Y-33328571D01*
X220162500Y-33328571D01*
X220296428Y-33400000D01*
X220805357Y-33328571D02*
X221376785Y-33328571D01*
X221082142Y-32828571D02*
X220921428Y-34114285D01*
X220975000Y-34257142D01*
X221108928Y-34328571D01*
X221251785Y-34328571D01*
X221751785Y-34328571D02*
X221876785Y-33328571D01*
X221841071Y-33614285D02*
X221930357Y-33471428D01*
X222010714Y-33400000D01*
X222162500Y-33328571D01*
X222305357Y-33328571D01*
X223323214Y-34328571D02*
X223421428Y-33542857D01*
X223367857Y-33400000D01*
X223233928Y-33328571D01*
X222948214Y-33328571D01*
X222796428Y-33400000D01*
X223332142Y-34257142D02*
X223180357Y-34328571D01*
X222823214Y-34328571D01*
X222689285Y-34257142D01*
X222635714Y-34114285D01*
X222653571Y-33971428D01*
X222742857Y-33828571D01*
X222894642Y-33757142D01*
X223251785Y-33757142D01*
X223403571Y-33685714D01*
X225305357Y-33328571D02*
X225144642Y-34614285D01*
X225055357Y-34757142D01*
X224903571Y-34828571D01*
X224832142Y-34828571D01*
X225367857Y-32828571D02*
X225287500Y-32900000D01*
X225350000Y-32971428D01*
X225430357Y-32900000D01*
X225367857Y-32828571D01*
X225350000Y-32971428D01*
X226108928Y-34328571D02*
X225975000Y-34257142D01*
X225912500Y-34185714D01*
X225858928Y-34042857D01*
X225912500Y-33614285D01*
X226001785Y-33471428D01*
X226082142Y-33400000D01*
X226233928Y-33328571D01*
X226448214Y-33328571D01*
X226582142Y-33400000D01*
X226644642Y-33471428D01*
X226698214Y-33614285D01*
X226644642Y-34042857D01*
X226555357Y-34185714D01*
X226475000Y-34257142D01*
X226323214Y-34328571D01*
X226108928Y-34328571D01*
X227376785Y-33328571D02*
X227251785Y-34328571D01*
X227358928Y-33471428D02*
X227439285Y-33400000D01*
X227591071Y-33328571D01*
X227805357Y-33328571D01*
X227939285Y-33400000D01*
X227992857Y-33542857D01*
X227894642Y-34328571D01*
X229189285Y-34257142D02*
X229037500Y-34328571D01*
X228751785Y-34328571D01*
X228617857Y-34257142D01*
X228564285Y-34114285D01*
X228635714Y-33542857D01*
X228725000Y-33400000D01*
X228876785Y-33328571D01*
X229162500Y-33328571D01*
X229296428Y-33400000D01*
X229350000Y-33542857D01*
X229332142Y-33685714D01*
X228600000Y-33828571D01*
X229832142Y-34257142D02*
X229966071Y-34328571D01*
X230251785Y-34328571D01*
X230403571Y-34257142D01*
X230492857Y-34114285D01*
X230501785Y-34042857D01*
X230448214Y-33900000D01*
X230314285Y-33828571D01*
X230100000Y-33828571D01*
X229966071Y-33757142D01*
X229912500Y-33614285D01*
X229921428Y-33542857D01*
X230010714Y-33400000D01*
X230162500Y-33328571D01*
X230376785Y-33328571D01*
X230510714Y-33400000D01*
X232350000Y-32971428D02*
X232430357Y-32900000D01*
X232582142Y-32828571D01*
X232939285Y-32828571D01*
X233073214Y-32900000D01*
X233135714Y-32971428D01*
X233189285Y-33114285D01*
X233171428Y-33257142D01*
X233073214Y-33471428D01*
X232108928Y-34328571D01*
X233037500Y-34328571D01*
X234153571Y-32828571D02*
X234296428Y-32828571D01*
X234430357Y-32900000D01*
X234492857Y-32971428D01*
X234546428Y-33114285D01*
X234582142Y-33400000D01*
X234537500Y-33757142D01*
X234430357Y-34042857D01*
X234341071Y-34185714D01*
X234260714Y-34257142D01*
X234108928Y-34328571D01*
X233966071Y-34328571D01*
X233832142Y-34257142D01*
X233769642Y-34185714D01*
X233716071Y-34042857D01*
X233680357Y-33757142D01*
X233725000Y-33400000D01*
X233832142Y-33114285D01*
X233921428Y-32971428D01*
X234001785Y-32900000D01*
X234153571Y-32828571D01*
X235207142Y-32971428D02*
X235287500Y-32900000D01*
X235439285Y-32828571D01*
X235796428Y-32828571D01*
X235930357Y-32900000D01*
X235992857Y-32971428D01*
X236046428Y-33114285D01*
X236028571Y-33257142D01*
X235930357Y-33471428D01*
X234966071Y-34328571D01*
X235894642Y-34328571D01*
X237323214Y-34328571D02*
X236466071Y-34328571D01*
X236894642Y-34328571D02*
X237082142Y-32828571D01*
X236912500Y-33042857D01*
X236751785Y-33185714D01*
X236600000Y-33257142D01*
X229153571Y-35378571D02*
X230153571Y-35378571D01*
X229323214Y-36878571D01*
X230608928Y-36878571D02*
X230894642Y-36878571D01*
X231046428Y-36807142D01*
X231126785Y-36735714D01*
X231296428Y-36521428D01*
X231403571Y-36235714D01*
X231475000Y-35664285D01*
X231421428Y-35521428D01*
X231358928Y-35450000D01*
X231225000Y-35378571D01*
X230939285Y-35378571D01*
X230787500Y-35450000D01*
X230707142Y-35521428D01*
X230617857Y-35664285D01*
X230573214Y-36021428D01*
X230626785Y-36164285D01*
X230689285Y-36235714D01*
X230823214Y-36307142D01*
X231108928Y-36307142D01*
X231260714Y-36235714D01*
X231341071Y-36164285D01*
X231430357Y-36021428D01*
X233108928Y-36878571D02*
X233296428Y-35378571D01*
X233323214Y-36307142D02*
X233680357Y-36878571D01*
X233805357Y-35878571D02*
X233162500Y-36450000D01*
X234903571Y-36807142D02*
X234751785Y-36878571D01*
X234466071Y-36878571D01*
X234332142Y-36807142D01*
X234278571Y-36664285D01*
X234350000Y-36092857D01*
X234439285Y-35950000D01*
X234591071Y-35878571D01*
X234876785Y-35878571D01*
X235010714Y-35950000D01*
X235064285Y-36092857D01*
X235046428Y-36235714D01*
X234314285Y-36378571D01*
X235591071Y-35878571D02*
X235823214Y-36878571D01*
X236305357Y-35878571D02*
X235823214Y-36878571D01*
X235635714Y-37235714D01*
X235555357Y-37307142D01*
X235403571Y-37378571D01*
X236689285Y-36807142D02*
X236823214Y-36878571D01*
X237108928Y-36878571D01*
X237260714Y-36807142D01*
X237350000Y-36664285D01*
X237358928Y-36592857D01*
X237305357Y-36450000D01*
X237171428Y-36378571D01*
X236957142Y-36378571D01*
X236823214Y-36307142D01*
X236769642Y-36164285D01*
X236778571Y-36092857D01*
X236867857Y-35950000D01*
X237019642Y-35878571D01*
X237233928Y-35878571D01*
X237367857Y-35950000D01*
X202305357Y-38428571D02*
X202876785Y-38428571D01*
X202394642Y-39428571D02*
X202555357Y-38142857D01*
X202644642Y-38000000D01*
X202796428Y-37928571D01*
X202939285Y-37928571D01*
X203466071Y-39428571D02*
X203332142Y-39357142D01*
X203269642Y-39285714D01*
X203216071Y-39142857D01*
X203269642Y-38714285D01*
X203358928Y-38571428D01*
X203439285Y-38500000D01*
X203591071Y-38428571D01*
X203805357Y-38428571D01*
X203939285Y-38500000D01*
X204001785Y-38571428D01*
X204055357Y-38714285D01*
X204001785Y-39142857D01*
X203912500Y-39285714D01*
X203832142Y-39357142D01*
X203680357Y-39428571D01*
X203466071Y-39428571D01*
X204608928Y-39428571D02*
X204733928Y-38428571D01*
X204698214Y-38714285D02*
X204787500Y-38571428D01*
X204867857Y-38500000D01*
X205019642Y-38428571D01*
X205162500Y-38428571D01*
X206591071Y-38428571D02*
X207162500Y-38428571D01*
X206867857Y-37928571D02*
X206707142Y-39214285D01*
X206760714Y-39357142D01*
X206894642Y-39428571D01*
X207037500Y-39428571D01*
X207537500Y-39428571D02*
X207725000Y-37928571D01*
X208180357Y-39428571D02*
X208278571Y-38642857D01*
X208225000Y-38500000D01*
X208091071Y-38428571D01*
X207876785Y-38428571D01*
X207725000Y-38500000D01*
X207644642Y-38571428D01*
X209108928Y-39428571D02*
X208975000Y-39357142D01*
X208912500Y-39285714D01*
X208858928Y-39142857D01*
X208912500Y-38714285D01*
X209001785Y-38571428D01*
X209082142Y-38500000D01*
X209233928Y-38428571D01*
X209448214Y-38428571D01*
X209582142Y-38500000D01*
X209644642Y-38571428D01*
X209698214Y-38714285D01*
X209644642Y-39142857D01*
X209555357Y-39285714D01*
X209475000Y-39357142D01*
X209323214Y-39428571D01*
X209108928Y-39428571D01*
X210189285Y-39357142D02*
X210323214Y-39428571D01*
X210608928Y-39428571D01*
X210760714Y-39357142D01*
X210850000Y-39214285D01*
X210858928Y-39142857D01*
X210805357Y-39000000D01*
X210671428Y-38928571D01*
X210457142Y-38928571D01*
X210323214Y-38857142D01*
X210269642Y-38714285D01*
X210278571Y-38642857D01*
X210367857Y-38500000D01*
X210519642Y-38428571D01*
X210733928Y-38428571D01*
X210867857Y-38500000D01*
X212046428Y-39357142D02*
X211894642Y-39428571D01*
X211608928Y-39428571D01*
X211475000Y-39357142D01*
X211421428Y-39214285D01*
X211492857Y-38642857D01*
X211582142Y-38500000D01*
X211733928Y-38428571D01*
X212019642Y-38428571D01*
X212153571Y-38500000D01*
X212207142Y-38642857D01*
X212189285Y-38785714D01*
X211457142Y-38928571D01*
X213876785Y-38428571D02*
X214037500Y-39428571D01*
X214412500Y-38714285D01*
X214608928Y-39428571D01*
X215019642Y-38428571D01*
X215466071Y-39428571D02*
X215591071Y-38428571D01*
X215653571Y-37928571D02*
X215573214Y-38000000D01*
X215635714Y-38071428D01*
X215716071Y-38000000D01*
X215653571Y-37928571D01*
X215635714Y-38071428D01*
X216091071Y-38428571D02*
X216662500Y-38428571D01*
X216367857Y-37928571D02*
X216207142Y-39214285D01*
X216260714Y-39357142D01*
X216394642Y-39428571D01*
X216537500Y-39428571D01*
X217037500Y-39428571D02*
X217225000Y-37928571D01*
X217680357Y-39428571D02*
X217778571Y-38642857D01*
X217725000Y-38500000D01*
X217591071Y-38428571D01*
X217376785Y-38428571D01*
X217225000Y-38500000D01*
X217144642Y-38571428D01*
X219537500Y-39428571D02*
X219725000Y-37928571D01*
X219751785Y-38857142D02*
X220108928Y-39428571D01*
X220233928Y-38428571D02*
X219591071Y-39000000D01*
X221332142Y-39357142D02*
X221180357Y-39428571D01*
X220894642Y-39428571D01*
X220760714Y-39357142D01*
X220707142Y-39214285D01*
X220778571Y-38642857D01*
X220867857Y-38500000D01*
X221019642Y-38428571D01*
X221305357Y-38428571D01*
X221439285Y-38500000D01*
X221492857Y-38642857D01*
X221475000Y-38785714D01*
X220742857Y-38928571D01*
X222019642Y-38428571D02*
X222251785Y-39428571D01*
X222733928Y-38428571D02*
X222251785Y-39428571D01*
X222064285Y-39785714D01*
X221983928Y-39857142D01*
X221832142Y-39928571D01*
X224537500Y-39428571D02*
X224403571Y-39357142D01*
X224350000Y-39214285D01*
X224510714Y-37928571D01*
X225323214Y-39428571D02*
X225189285Y-39357142D01*
X225126785Y-39285714D01*
X225073214Y-39142857D01*
X225126785Y-38714285D01*
X225216071Y-38571428D01*
X225296428Y-38500000D01*
X225448214Y-38428571D01*
X225662500Y-38428571D01*
X225796428Y-38500000D01*
X225858928Y-38571428D01*
X225912500Y-38714285D01*
X225858928Y-39142857D01*
X225769642Y-39285714D01*
X225689285Y-39357142D01*
X225537500Y-39428571D01*
X225323214Y-39428571D01*
X226403571Y-39357142D02*
X226537500Y-39428571D01*
X226823214Y-39428571D01*
X226975000Y-39357142D01*
X227064285Y-39214285D01*
X227073214Y-39142857D01*
X227019642Y-39000000D01*
X226885714Y-38928571D01*
X226671428Y-38928571D01*
X226537500Y-38857142D01*
X226483928Y-38714285D01*
X226492857Y-38642857D01*
X226582142Y-38500000D01*
X226733928Y-38428571D01*
X226948214Y-38428571D01*
X227082142Y-38500000D01*
X227617857Y-39357142D02*
X227751785Y-39428571D01*
X228037500Y-39428571D01*
X228189285Y-39357142D01*
X228278571Y-39214285D01*
X228287500Y-39142857D01*
X228233928Y-39000000D01*
X228100000Y-38928571D01*
X227885714Y-38928571D01*
X227751785Y-38857142D01*
X227698214Y-38714285D01*
X227707142Y-38642857D01*
X227796428Y-38500000D01*
X227948214Y-38428571D01*
X228162500Y-38428571D01*
X228296428Y-38500000D01*
X230680357Y-39428571D02*
X230778571Y-38642857D01*
X230725000Y-38500000D01*
X230591071Y-38428571D01*
X230305357Y-38428571D01*
X230153571Y-38500000D01*
X230689285Y-39357142D02*
X230537500Y-39428571D01*
X230180357Y-39428571D01*
X230046428Y-39357142D01*
X229992857Y-39214285D01*
X230010714Y-39071428D01*
X230100000Y-38928571D01*
X230251785Y-38857142D01*
X230608928Y-38857142D01*
X230760714Y-38785714D01*
X231519642Y-38428571D02*
X231394642Y-39428571D01*
X231501785Y-38571428D02*
X231582142Y-38500000D01*
X231733928Y-38428571D01*
X231948214Y-38428571D01*
X232082142Y-38500000D01*
X232135714Y-38642857D01*
X232037500Y-39428571D01*
X232608928Y-39428571D02*
X233519642Y-38428571D01*
X232733928Y-38428571D02*
X233394642Y-39428571D01*
X233966071Y-39428571D02*
X234091071Y-38428571D01*
X234153571Y-37928571D02*
X234073214Y-38000000D01*
X234135714Y-38071428D01*
X234216071Y-38000000D01*
X234153571Y-37928571D01*
X234135714Y-38071428D01*
X235260714Y-39357142D02*
X235108928Y-39428571D01*
X234823214Y-39428571D01*
X234689285Y-39357142D01*
X234635714Y-39214285D01*
X234707142Y-38642857D01*
X234796428Y-38500000D01*
X234948214Y-38428571D01*
X235233928Y-38428571D01*
X235367857Y-38500000D01*
X235421428Y-38642857D01*
X235403571Y-38785714D01*
X234671428Y-38928571D01*
X235876785Y-38428571D02*
X236448214Y-38428571D01*
X236153571Y-37928571D02*
X235992857Y-39214285D01*
X236046428Y-39357142D01*
X236180357Y-39428571D01*
X236323214Y-39428571D01*
X236805357Y-38428571D02*
X237037500Y-39428571D01*
X237519642Y-38428571D02*
X237037500Y-39428571D01*
X236850000Y-39785714D01*
X236769642Y-39857142D01*
X236617857Y-39928571D01*
D11*
X298450000Y-173037500D03*
X31750000Y-173037500D03*
X298450000Y-31750000D03*
X298450000Y-53181250D03*
X31750000Y-53181250D03*
X31750000Y-31750000D03*
D12*
X153987500Y-88900000D03*
D13*
X148907500Y-88900000D03*
X159067500Y-88900000D03*
D12*
X192087500Y-88900000D03*
D13*
X187007500Y-88900000D03*
X197167500Y-88900000D03*
D12*
X153987500Y-69850000D03*
D13*
X148907500Y-69850000D03*
X159067500Y-69850000D03*
D12*
X115887500Y-69850000D03*
D13*
X110807500Y-69850000D03*
X120967500Y-69850000D03*
D12*
X58737500Y-69850000D03*
D13*
X53657500Y-69850000D03*
X63817500Y-69850000D03*
D12*
X192087500Y-69850000D03*
D13*
X187007500Y-69850000D03*
X197167500Y-69850000D03*
D12*
X249237500Y-69850000D03*
D13*
X244157500Y-69850000D03*
X254317500Y-69850000D03*
D12*
X287337500Y-69850000D03*
D13*
X282257500Y-69850000D03*
X292417500Y-69850000D03*
D12*
X153987500Y-165100000D03*
D13*
X148907500Y-165100000D03*
X159067500Y-165100000D03*
D14*
X96837500Y-172085000D03*
X211137500Y-172085000D03*
D12*
X96837500Y-156845000D03*
X211137500Y-156845000D03*
D15*
X244157500Y-58420000D03*
X246697500Y-58420000D03*
X249237500Y-58420000D03*
X251777500Y-58420000D03*
X254317500Y-58420000D03*
X256857500Y-30480000D03*
X241846100Y-58420000D03*
X256857500Y-33020000D03*
X256857500Y-35560000D03*
X256857500Y-38100000D03*
X256857500Y-40640000D03*
X256857500Y-43180000D03*
X256857500Y-45720000D03*
X256857500Y-48260000D03*
X256857500Y-50800000D03*
X256857500Y-53340000D03*
X256857500Y-55880000D03*
X256857500Y-58420000D03*
X241617500Y-55880000D03*
X241617500Y-53340000D03*
X241617500Y-50800000D03*
X241617500Y-48260000D03*
X241617500Y-45720000D03*
X241617500Y-43180000D03*
X241617500Y-40640000D03*
X241617500Y-38100000D03*
X241617500Y-35560000D03*
X241617500Y-33020000D03*
D16*
X241617500Y-30480000D03*
D12*
X39687500Y-88900000D03*
D13*
X34607500Y-88900000D03*
X44767500Y-88900000D03*
D12*
X58737500Y-146050000D03*
D13*
X53657500Y-146050000D03*
X63817500Y-146050000D03*
D12*
X153987500Y-107950000D03*
D13*
X148907500Y-107950000D03*
X159067500Y-107950000D03*
D12*
X77787500Y-146050000D03*
D13*
X72707500Y-146050000D03*
X82867500Y-146050000D03*
D12*
X77787500Y-107950000D03*
D13*
X72707500Y-107950000D03*
X82867500Y-107950000D03*
D12*
X115887500Y-146050000D03*
D13*
X110807500Y-146050000D03*
X120967500Y-146050000D03*
D12*
X268287500Y-146050000D03*
D13*
X263207500Y-146050000D03*
X273367500Y-146050000D03*
D12*
X173037500Y-107950000D03*
D13*
X167957500Y-107950000D03*
X178117500Y-107950000D03*
D12*
X39687500Y-107950000D03*
D13*
X34607500Y-107950000D03*
X44767500Y-107950000D03*
D12*
X134937500Y-107950000D03*
D13*
X129857500Y-107950000D03*
X140017500Y-107950000D03*
D12*
X58737500Y-165100000D03*
D13*
X53657500Y-165100000D03*
X63817500Y-165100000D03*
D12*
X287337500Y-146050000D03*
D13*
X282257500Y-146050000D03*
X292417500Y-146050000D03*
D12*
X194468750Y-165100000D03*
D13*
X189388750Y-165100000D03*
X199548750Y-165100000D03*
D14*
X182562500Y-158115000D03*
X206375000Y-158115000D03*
D12*
X182562500Y-173355000D03*
X206375000Y-173355000D03*
X113506250Y-165100000D03*
D13*
X108426250Y-165100000D03*
X118586250Y-165100000D03*
D14*
X101600000Y-158115000D03*
X125412500Y-158115000D03*
D12*
X101600000Y-173355000D03*
X125412500Y-173355000D03*
X230187500Y-146050000D03*
D13*
X225107500Y-146050000D03*
X235267500Y-146050000D03*
D12*
X39687500Y-146050000D03*
D13*
X34607500Y-146050000D03*
X44767500Y-146050000D03*
D12*
X249237500Y-146050000D03*
D13*
X244157500Y-146050000D03*
X254317500Y-146050000D03*
D12*
X230187500Y-127000000D03*
D13*
X225107500Y-127000000D03*
X235267500Y-127000000D03*
D12*
X77787500Y-127000000D03*
D13*
X72707500Y-127000000D03*
X82867500Y-127000000D03*
D12*
X287337500Y-165100000D03*
D13*
X282257500Y-165100000D03*
X292417500Y-165100000D03*
D12*
X115887500Y-107950000D03*
D13*
X110807500Y-107950000D03*
X120967500Y-107950000D03*
D12*
X249237500Y-127000000D03*
D13*
X244157500Y-127000000D03*
X254317500Y-127000000D03*
D12*
X58737500Y-107950000D03*
D13*
X53657500Y-107950000D03*
X63817500Y-107950000D03*
D12*
X230187500Y-107950000D03*
D13*
X225107500Y-107950000D03*
X235267500Y-107950000D03*
D12*
X268287500Y-107950000D03*
D13*
X263207500Y-107950000D03*
X273367500Y-107950000D03*
D12*
X211137500Y-107950000D03*
D13*
X206057500Y-107950000D03*
X216217500Y-107950000D03*
D12*
X153987500Y-146050000D03*
D13*
X148907500Y-146050000D03*
X159067500Y-146050000D03*
D12*
X249237500Y-88900000D03*
D13*
X244157500Y-88900000D03*
X254317500Y-88900000D03*
D12*
X230187500Y-165100000D03*
D13*
X225107500Y-165100000D03*
X235267500Y-165100000D03*
D12*
X173037500Y-146050000D03*
D13*
X167957500Y-146050000D03*
X178117500Y-146050000D03*
D12*
X249237500Y-165100000D03*
D13*
X244157500Y-165100000D03*
X254317500Y-165100000D03*
D12*
X211137500Y-127000000D03*
D13*
X206057500Y-127000000D03*
X216217500Y-127000000D03*
D12*
X192087500Y-127000000D03*
D13*
X187007500Y-127000000D03*
X197167500Y-127000000D03*
D12*
X173037500Y-127000000D03*
D13*
X167957500Y-127000000D03*
X178117500Y-127000000D03*
D12*
X192087500Y-107950000D03*
D13*
X187007500Y-107950000D03*
X197167500Y-107950000D03*
D12*
X153987500Y-127000000D03*
D13*
X148907500Y-127000000D03*
X159067500Y-127000000D03*
D12*
X134937500Y-127000000D03*
D13*
X129857500Y-127000000D03*
X140017500Y-127000000D03*
D12*
X115887500Y-127000000D03*
D13*
X110807500Y-127000000D03*
X120967500Y-127000000D03*
D12*
X268287500Y-69850000D03*
D13*
X263207500Y-69850000D03*
X273367500Y-69850000D03*
D12*
X230187500Y-69850000D03*
D13*
X225107500Y-69850000D03*
X235267500Y-69850000D03*
D12*
X211137500Y-69850000D03*
D13*
X206057500Y-69850000D03*
X216217500Y-69850000D03*
D12*
X173037500Y-69850000D03*
D13*
X167957500Y-69850000D03*
X178117500Y-69850000D03*
D12*
X134937500Y-69850000D03*
D13*
X129857500Y-69850000D03*
X140017500Y-69850000D03*
D12*
X96837500Y-69850000D03*
D13*
X91757500Y-69850000D03*
X101917500Y-69850000D03*
D12*
X77787500Y-69850000D03*
D13*
X72707500Y-69850000D03*
X82867500Y-69850000D03*
D12*
X39687500Y-69850000D03*
D13*
X34607500Y-69850000D03*
X44767500Y-69850000D03*
D12*
X268287500Y-88900000D03*
D13*
X263207500Y-88900000D03*
X273367500Y-88900000D03*
D12*
X277812500Y-127000000D03*
D13*
X272732500Y-127000000D03*
X282892500Y-127000000D03*
D14*
X265906250Y-120015000D03*
X289718750Y-120015000D03*
D12*
X265906250Y-135255000D03*
X289718750Y-135255000D03*
X96837500Y-107950000D03*
D13*
X91757500Y-107950000D03*
X101917500Y-107950000D03*
D12*
X268287500Y-165100000D03*
D13*
X263207500Y-165100000D03*
X273367500Y-165100000D03*
D12*
X211137500Y-146050000D03*
D13*
X206057500Y-146050000D03*
X216217500Y-146050000D03*
D12*
X96837500Y-127000000D03*
D13*
X91757500Y-127000000D03*
X101917500Y-127000000D03*
D12*
X39687500Y-165100000D03*
D13*
X34607500Y-165100000D03*
X44767500Y-165100000D03*
D12*
X39687500Y-127000000D03*
D13*
X34607500Y-127000000D03*
X44767500Y-127000000D03*
D12*
X192087500Y-146050000D03*
D13*
X187007500Y-146050000D03*
X197167500Y-146050000D03*
D12*
X249237500Y-107950000D03*
D13*
X244157500Y-107950000D03*
X254317500Y-107950000D03*
D12*
X96837500Y-146050000D03*
D13*
X91757500Y-146050000D03*
X101917500Y-146050000D03*
D12*
X287337500Y-107950000D03*
D13*
X282257500Y-107950000D03*
X292417500Y-107950000D03*
D12*
X287337500Y-88900000D03*
D13*
X282257500Y-88900000D03*
X292417500Y-88900000D03*
D12*
X134937500Y-146050000D03*
D13*
X129857500Y-146050000D03*
X140017500Y-146050000D03*
D12*
X77787500Y-165100000D03*
D13*
X72707500Y-165100000D03*
X82867500Y-165100000D03*
D12*
X58737500Y-127000000D03*
D13*
X53657500Y-127000000D03*
X63817500Y-127000000D03*
D12*
X211137500Y-88900000D03*
D13*
X206057500Y-88900000D03*
X216217500Y-88900000D03*
D12*
X173037500Y-88900000D03*
D13*
X167957500Y-88900000D03*
X178117500Y-88900000D03*
D12*
X134937500Y-88900000D03*
D13*
X129857500Y-88900000D03*
X140017500Y-88900000D03*
D12*
X115887500Y-88900000D03*
D13*
X110807500Y-88900000D03*
X120967500Y-88900000D03*
D12*
X96837500Y-88900000D03*
D13*
X91757500Y-88900000D03*
X101917500Y-88900000D03*
D12*
X77787500Y-88900000D03*
D13*
X72707500Y-88900000D03*
X82867500Y-88900000D03*
D12*
X58737500Y-88900000D03*
D13*
X53657500Y-88900000D03*
X63817500Y-88900000D03*
D12*
X230187500Y-88900000D03*
D13*
X225107500Y-88900000D03*
X235267500Y-88900000D03*
M02*
