G04 #@! TF.GenerationSoftware,KiCad,Pcbnew,5.1.9-73d0e3b20d~88~ubuntu18.04.1*
G04 #@! TF.CreationDate,2021-04-10T14:02:40-05:00*
G04 #@! TF.ProjectId,positron_bottom,706f7369-7472-46f6-9e5f-626f74746f6d,rev?*
G04 #@! TF.SameCoordinates,Original*
G04 #@! TF.FileFunction,Legend,Top*
G04 #@! TF.FilePolarity,Positive*
%FSLAX46Y46*%
G04 Gerber Fmt 4.6, Leading zero omitted, Abs format (unit mm)*
G04 Created by KiCad (PCBNEW 5.1.9-73d0e3b20d~88~ubuntu18.04.1) date 2021-04-10 14:02:40*
%MOMM*%
%LPD*%
G01*
G04 APERTURE LIST*
%ADD10C,0.010000*%
G04 APERTURE END LIST*
D10*
G36*
X141154242Y-139784350D02*
G01*
X141661826Y-139837332D01*
X141698708Y-139843528D01*
X142435417Y-140027590D01*
X143126759Y-140307010D01*
X143740338Y-140663727D01*
X144243758Y-141079682D01*
X144531858Y-141423016D01*
X144781637Y-141872693D01*
X144968125Y-142382456D01*
X145084019Y-142909884D01*
X145122009Y-143412557D01*
X145074791Y-143848053D01*
X144990233Y-144084272D01*
X144936492Y-144187969D01*
X144882117Y-144277102D01*
X144814583Y-144352881D01*
X144721369Y-144416518D01*
X144589950Y-144469221D01*
X144407802Y-144512203D01*
X144162404Y-144546673D01*
X143841230Y-144573843D01*
X143431758Y-144594922D01*
X142921464Y-144611121D01*
X142297825Y-144623651D01*
X141548317Y-144633722D01*
X140660417Y-144642545D01*
X139621602Y-144651330D01*
X139077716Y-144655790D01*
X133835054Y-144698965D01*
X133897205Y-144284512D01*
X134062005Y-143658167D01*
X135118426Y-143658167D01*
X137388046Y-143657994D01*
X138164321Y-143655398D01*
X139042762Y-143648244D01*
X139960489Y-143637314D01*
X140854622Y-143623395D01*
X141662280Y-143607269D01*
X141890582Y-143601812D01*
X144123498Y-143545803D01*
X144075532Y-143081055D01*
X143939765Y-142485076D01*
X143663991Y-141983643D01*
X143245919Y-141572773D01*
X143181173Y-141525926D01*
X142711307Y-141238675D01*
X142224795Y-141034014D01*
X141679122Y-140899702D01*
X141031768Y-140823498D01*
X140673666Y-140804013D01*
X139931053Y-140798378D01*
X139293564Y-140852986D01*
X138704031Y-140979769D01*
X138105282Y-141190657D01*
X137505034Y-141465314D01*
X137046250Y-141704620D01*
X136688946Y-141926906D01*
X136375383Y-142172787D01*
X136047817Y-142482880D01*
X136023367Y-142507539D01*
X135747856Y-142797989D01*
X135503704Y-143076500D01*
X135326549Y-143301450D01*
X135271379Y-143385836D01*
X135118426Y-143658167D01*
X134062005Y-143658167D01*
X134091114Y-143547538D01*
X134440341Y-142835266D01*
X134931261Y-142160891D01*
X135550252Y-141537606D01*
X136283688Y-140978607D01*
X137117947Y-140497090D01*
X138039403Y-140106248D01*
X138303000Y-140017463D01*
X138743591Y-139913217D01*
X139300441Y-139835149D01*
X139922120Y-139785892D01*
X140557197Y-139768081D01*
X141154242Y-139784350D01*
G37*
X141154242Y-139784350D02*
X141661826Y-139837332D01*
X141698708Y-139843528D01*
X142435417Y-140027590D01*
X143126759Y-140307010D01*
X143740338Y-140663727D01*
X144243758Y-141079682D01*
X144531858Y-141423016D01*
X144781637Y-141872693D01*
X144968125Y-142382456D01*
X145084019Y-142909884D01*
X145122009Y-143412557D01*
X145074791Y-143848053D01*
X144990233Y-144084272D01*
X144936492Y-144187969D01*
X144882117Y-144277102D01*
X144814583Y-144352881D01*
X144721369Y-144416518D01*
X144589950Y-144469221D01*
X144407802Y-144512203D01*
X144162404Y-144546673D01*
X143841230Y-144573843D01*
X143431758Y-144594922D01*
X142921464Y-144611121D01*
X142297825Y-144623651D01*
X141548317Y-144633722D01*
X140660417Y-144642545D01*
X139621602Y-144651330D01*
X139077716Y-144655790D01*
X133835054Y-144698965D01*
X133897205Y-144284512D01*
X134062005Y-143658167D01*
X135118426Y-143658167D01*
X137388046Y-143657994D01*
X138164321Y-143655398D01*
X139042762Y-143648244D01*
X139960489Y-143637314D01*
X140854622Y-143623395D01*
X141662280Y-143607269D01*
X141890582Y-143601812D01*
X144123498Y-143545803D01*
X144075532Y-143081055D01*
X143939765Y-142485076D01*
X143663991Y-141983643D01*
X143245919Y-141572773D01*
X143181173Y-141525926D01*
X142711307Y-141238675D01*
X142224795Y-141034014D01*
X141679122Y-140899702D01*
X141031768Y-140823498D01*
X140673666Y-140804013D01*
X139931053Y-140798378D01*
X139293564Y-140852986D01*
X138704031Y-140979769D01*
X138105282Y-141190657D01*
X137505034Y-141465314D01*
X137046250Y-141704620D01*
X136688946Y-141926906D01*
X136375383Y-142172787D01*
X136047817Y-142482880D01*
X136023367Y-142507539D01*
X135747856Y-142797989D01*
X135503704Y-143076500D01*
X135326549Y-143301450D01*
X135271379Y-143385836D01*
X135118426Y-143658167D01*
X134062005Y-143658167D01*
X134091114Y-143547538D01*
X134440341Y-142835266D01*
X134931261Y-142160891D01*
X135550252Y-141537606D01*
X136283688Y-140978607D01*
X137117947Y-140497090D01*
X138039403Y-140106248D01*
X138303000Y-140017463D01*
X138743591Y-139913217D01*
X139300441Y-139835149D01*
X139922120Y-139785892D01*
X140557197Y-139768081D01*
X141154242Y-139784350D01*
G36*
X157903503Y-126503627D02*
G01*
X158462506Y-126634050D01*
X158909314Y-126884315D01*
X159250232Y-127257123D01*
X159332083Y-127391963D01*
X159426781Y-127597247D01*
X159489318Y-127827155D01*
X159519008Y-128103515D01*
X159515164Y-128448153D01*
X159477097Y-128882897D01*
X159404122Y-129429575D01*
X159295550Y-130110014D01*
X159235406Y-130462724D01*
X158947756Y-132126281D01*
X161283044Y-132158901D01*
X162052847Y-132171689D01*
X162674054Y-132189084D01*
X163167403Y-132215298D01*
X163553629Y-132254539D01*
X163853472Y-132311020D01*
X164087667Y-132388949D01*
X164276952Y-132492536D01*
X164442064Y-132625993D01*
X164603740Y-132793529D01*
X164646537Y-132841783D01*
X164922275Y-133245546D01*
X165063991Y-133693894D01*
X165083724Y-134227243D01*
X165078903Y-134293582D01*
X164958538Y-135015402D01*
X164723008Y-135616444D01*
X164367977Y-136103955D01*
X163889109Y-136485182D01*
X163706889Y-136586996D01*
X163207611Y-136842500D01*
X160703638Y-136868297D01*
X160068567Y-136876738D01*
X159488830Y-136888082D01*
X158985926Y-136901617D01*
X158581356Y-136916633D01*
X158296620Y-136932421D01*
X158153217Y-136948269D01*
X158140936Y-136952963D01*
X158109837Y-137049769D01*
X158054582Y-137289251D01*
X157980097Y-137647270D01*
X157891309Y-138099684D01*
X157793143Y-138622353D01*
X157734269Y-138945855D01*
X157602140Y-139665323D01*
X157488513Y-140241564D01*
X157386231Y-140698732D01*
X157288138Y-141060979D01*
X157187076Y-141352455D01*
X157075890Y-141597313D01*
X156947422Y-141819705D01*
X156831796Y-141991438D01*
X156478479Y-142356054D01*
X156004972Y-142644695D01*
X155447606Y-142846005D01*
X154842710Y-142948624D01*
X154226616Y-142941195D01*
X153939599Y-142895632D01*
X153424306Y-142713000D01*
X153027957Y-142410426D01*
X152754713Y-141992461D01*
X152608735Y-141463655D01*
X152605048Y-141435938D01*
X152604437Y-141216542D01*
X152636786Y-140844716D01*
X152700452Y-140333790D01*
X152793790Y-139697095D01*
X152902964Y-139020624D01*
X152997810Y-138451909D01*
X153082631Y-137940303D01*
X153153632Y-137508930D01*
X153207021Y-137180914D01*
X153239006Y-136979381D01*
X153246666Y-136925124D01*
X153166051Y-136913328D01*
X152940410Y-136902836D01*
X152594046Y-136894190D01*
X152151266Y-136887929D01*
X151636374Y-136884593D01*
X151405166Y-136884194D01*
X150823728Y-136879909D01*
X150263386Y-136868315D01*
X149759133Y-136850702D01*
X149345963Y-136828357D01*
X149058869Y-136802569D01*
X149013333Y-136796126D01*
X148445011Y-136644562D01*
X147967839Y-136392987D01*
X147609858Y-136057946D01*
X147508574Y-135908171D01*
X147410744Y-135715337D01*
X147355274Y-135522007D01*
X147333630Y-135274887D01*
X147337275Y-134920685D01*
X147338808Y-134875023D01*
X148336000Y-134875023D01*
X148340108Y-135106857D01*
X148362702Y-135296873D01*
X148419182Y-135449473D01*
X148524951Y-135569060D01*
X148695410Y-135660037D01*
X148945960Y-135726805D01*
X149292004Y-135773769D01*
X149748942Y-135805329D01*
X150332177Y-135825890D01*
X151057109Y-135839853D01*
X151743833Y-135849161D01*
X152501375Y-135859708D01*
X153105878Y-135870737D01*
X153573635Y-135883202D01*
X153920940Y-135898061D01*
X154164084Y-135916267D01*
X154319362Y-135938777D01*
X154403067Y-135966546D01*
X154431492Y-136000529D01*
X154432000Y-136006806D01*
X154418469Y-136118453D01*
X154380153Y-136375675D01*
X154320462Y-136757077D01*
X154242807Y-137241263D01*
X154150601Y-137806841D01*
X154047255Y-138432414D01*
X154000372Y-138713739D01*
X153869585Y-139501731D01*
X153767933Y-140139650D01*
X153696074Y-140644343D01*
X153654662Y-141032658D01*
X153644356Y-141321444D01*
X153665811Y-141527547D01*
X153719685Y-141667815D01*
X153806633Y-141759098D01*
X153927312Y-141818241D01*
X154082379Y-141862093D01*
X154123440Y-141871897D01*
X154613051Y-141923328D01*
X155124813Y-141870205D01*
X155581385Y-141722011D01*
X155655104Y-141684114D01*
X155820430Y-141579778D01*
X155961351Y-141453636D01*
X156084026Y-141287757D01*
X156194613Y-141064213D01*
X156299270Y-140765075D01*
X156404157Y-140372414D01*
X156515431Y-139868299D01*
X156639250Y-139234802D01*
X156781774Y-138453994D01*
X156800380Y-138349805D01*
X156909617Y-137735506D01*
X157008481Y-137176523D01*
X157093229Y-136694252D01*
X157160122Y-136310088D01*
X157205419Y-136045428D01*
X157225377Y-135921665D01*
X157226000Y-135915638D01*
X157307333Y-135904294D01*
X157538002Y-135893941D01*
X157898012Y-135884923D01*
X158367365Y-135877585D01*
X158926066Y-135872270D01*
X159554120Y-135869323D01*
X159946677Y-135868834D01*
X160773990Y-135867480D01*
X161450395Y-135861835D01*
X161994305Y-135849524D01*
X162424134Y-135828171D01*
X162758295Y-135795402D01*
X163015203Y-135748841D01*
X163213271Y-135686114D01*
X163370912Y-135604845D01*
X163506541Y-135502658D01*
X163620954Y-135394901D01*
X163853972Y-135074521D01*
X164007658Y-134685794D01*
X164075271Y-134276023D01*
X164050074Y-133892512D01*
X163925327Y-133582565D01*
X163886362Y-133531842D01*
X163793914Y-133440523D01*
X163677711Y-133365894D01*
X163520815Y-133306249D01*
X163306286Y-133259882D01*
X163017187Y-133225084D01*
X162636577Y-133200149D01*
X162147518Y-133183370D01*
X161533071Y-133173041D01*
X160776296Y-133167453D01*
X160252833Y-133165681D01*
X159619320Y-133163444D01*
X159044228Y-133160102D01*
X158548338Y-133155881D01*
X158152430Y-133151006D01*
X157877282Y-133145703D01*
X157743676Y-133140197D01*
X157734185Y-133138334D01*
X157748047Y-133052720D01*
X157787019Y-132822277D01*
X157847329Y-132469027D01*
X157925209Y-132014994D01*
X158016889Y-131482202D01*
X158114599Y-130915834D01*
X158247830Y-130131071D01*
X158349881Y-129494820D01*
X158422455Y-128989479D01*
X158467253Y-128597450D01*
X158485977Y-128301134D01*
X158480329Y-128082930D01*
X158452011Y-127925239D01*
X158413120Y-127828840D01*
X158229822Y-127652384D01*
X157931388Y-127541903D01*
X157558230Y-127496447D01*
X157150760Y-127515069D01*
X156749391Y-127596821D01*
X156394533Y-127740753D01*
X156192103Y-127880950D01*
X156068338Y-128015385D01*
X155957735Y-128196836D01*
X155854659Y-128444566D01*
X155753473Y-128777840D01*
X155648541Y-129215922D01*
X155534228Y-129778077D01*
X155404898Y-130483567D01*
X155366142Y-130704167D01*
X155266200Y-131275902D01*
X155173835Y-131802089D01*
X155093699Y-132256389D01*
X155030448Y-132612466D01*
X154988735Y-132843981D01*
X154975919Y-132912460D01*
X154932786Y-133131086D01*
X152248226Y-133124126D01*
X149563666Y-133117167D01*
X149169685Y-133348772D01*
X148795063Y-133662120D01*
X148518107Y-134085080D01*
X148362014Y-134575183D01*
X148336000Y-134875023D01*
X147338808Y-134875023D01*
X147339553Y-134852834D01*
X147435087Y-134122194D01*
X147666036Y-133492440D01*
X148031689Y-132964713D01*
X148531333Y-132540149D01*
X148921344Y-132322978D01*
X149064470Y-132257590D01*
X149197118Y-132206257D01*
X149341669Y-132167002D01*
X149520502Y-132137848D01*
X149755997Y-132116816D01*
X150070533Y-132101930D01*
X150486491Y-132091213D01*
X151026250Y-132082686D01*
X151712190Y-132074373D01*
X151738408Y-132074070D01*
X154082484Y-132046973D01*
X154127825Y-131820070D01*
X154156609Y-131664940D01*
X154208465Y-131374671D01*
X154277797Y-130981015D01*
X154359009Y-130515720D01*
X154434410Y-130080609D01*
X154529745Y-129557822D01*
X154629753Y-129059654D01*
X154726176Y-128623871D01*
X154810754Y-128288242D01*
X154862983Y-128120822D01*
X155161367Y-127542541D01*
X155575739Y-127086214D01*
X156101190Y-126755226D01*
X156732810Y-126552965D01*
X157226000Y-126490348D01*
X157903503Y-126503627D01*
G37*
X157903503Y-126503627D02*
X158462506Y-126634050D01*
X158909314Y-126884315D01*
X159250232Y-127257123D01*
X159332083Y-127391963D01*
X159426781Y-127597247D01*
X159489318Y-127827155D01*
X159519008Y-128103515D01*
X159515164Y-128448153D01*
X159477097Y-128882897D01*
X159404122Y-129429575D01*
X159295550Y-130110014D01*
X159235406Y-130462724D01*
X158947756Y-132126281D01*
X161283044Y-132158901D01*
X162052847Y-132171689D01*
X162674054Y-132189084D01*
X163167403Y-132215298D01*
X163553629Y-132254539D01*
X163853472Y-132311020D01*
X164087667Y-132388949D01*
X164276952Y-132492536D01*
X164442064Y-132625993D01*
X164603740Y-132793529D01*
X164646537Y-132841783D01*
X164922275Y-133245546D01*
X165063991Y-133693894D01*
X165083724Y-134227243D01*
X165078903Y-134293582D01*
X164958538Y-135015402D01*
X164723008Y-135616444D01*
X164367977Y-136103955D01*
X163889109Y-136485182D01*
X163706889Y-136586996D01*
X163207611Y-136842500D01*
X160703638Y-136868297D01*
X160068567Y-136876738D01*
X159488830Y-136888082D01*
X158985926Y-136901617D01*
X158581356Y-136916633D01*
X158296620Y-136932421D01*
X158153217Y-136948269D01*
X158140936Y-136952963D01*
X158109837Y-137049769D01*
X158054582Y-137289251D01*
X157980097Y-137647270D01*
X157891309Y-138099684D01*
X157793143Y-138622353D01*
X157734269Y-138945855D01*
X157602140Y-139665323D01*
X157488513Y-140241564D01*
X157386231Y-140698732D01*
X157288138Y-141060979D01*
X157187076Y-141352455D01*
X157075890Y-141597313D01*
X156947422Y-141819705D01*
X156831796Y-141991438D01*
X156478479Y-142356054D01*
X156004972Y-142644695D01*
X155447606Y-142846005D01*
X154842710Y-142948624D01*
X154226616Y-142941195D01*
X153939599Y-142895632D01*
X153424306Y-142713000D01*
X153027957Y-142410426D01*
X152754713Y-141992461D01*
X152608735Y-141463655D01*
X152605048Y-141435938D01*
X152604437Y-141216542D01*
X152636786Y-140844716D01*
X152700452Y-140333790D01*
X152793790Y-139697095D01*
X152902964Y-139020624D01*
X152997810Y-138451909D01*
X153082631Y-137940303D01*
X153153632Y-137508930D01*
X153207021Y-137180914D01*
X153239006Y-136979381D01*
X153246666Y-136925124D01*
X153166051Y-136913328D01*
X152940410Y-136902836D01*
X152594046Y-136894190D01*
X152151266Y-136887929D01*
X151636374Y-136884593D01*
X151405166Y-136884194D01*
X150823728Y-136879909D01*
X150263386Y-136868315D01*
X149759133Y-136850702D01*
X149345963Y-136828357D01*
X149058869Y-136802569D01*
X149013333Y-136796126D01*
X148445011Y-136644562D01*
X147967839Y-136392987D01*
X147609858Y-136057946D01*
X147508574Y-135908171D01*
X147410744Y-135715337D01*
X147355274Y-135522007D01*
X147333630Y-135274887D01*
X147337275Y-134920685D01*
X147338808Y-134875023D01*
X148336000Y-134875023D01*
X148340108Y-135106857D01*
X148362702Y-135296873D01*
X148419182Y-135449473D01*
X148524951Y-135569060D01*
X148695410Y-135660037D01*
X148945960Y-135726805D01*
X149292004Y-135773769D01*
X149748942Y-135805329D01*
X150332177Y-135825890D01*
X151057109Y-135839853D01*
X151743833Y-135849161D01*
X152501375Y-135859708D01*
X153105878Y-135870737D01*
X153573635Y-135883202D01*
X153920940Y-135898061D01*
X154164084Y-135916267D01*
X154319362Y-135938777D01*
X154403067Y-135966546D01*
X154431492Y-136000529D01*
X154432000Y-136006806D01*
X154418469Y-136118453D01*
X154380153Y-136375675D01*
X154320462Y-136757077D01*
X154242807Y-137241263D01*
X154150601Y-137806841D01*
X154047255Y-138432414D01*
X154000372Y-138713739D01*
X153869585Y-139501731D01*
X153767933Y-140139650D01*
X153696074Y-140644343D01*
X153654662Y-141032658D01*
X153644356Y-141321444D01*
X153665811Y-141527547D01*
X153719685Y-141667815D01*
X153806633Y-141759098D01*
X153927312Y-141818241D01*
X154082379Y-141862093D01*
X154123440Y-141871897D01*
X154613051Y-141923328D01*
X155124813Y-141870205D01*
X155581385Y-141722011D01*
X155655104Y-141684114D01*
X155820430Y-141579778D01*
X155961351Y-141453636D01*
X156084026Y-141287757D01*
X156194613Y-141064213D01*
X156299270Y-140765075D01*
X156404157Y-140372414D01*
X156515431Y-139868299D01*
X156639250Y-139234802D01*
X156781774Y-138453994D01*
X156800380Y-138349805D01*
X156909617Y-137735506D01*
X157008481Y-137176523D01*
X157093229Y-136694252D01*
X157160122Y-136310088D01*
X157205419Y-136045428D01*
X157225377Y-135921665D01*
X157226000Y-135915638D01*
X157307333Y-135904294D01*
X157538002Y-135893941D01*
X157898012Y-135884923D01*
X158367365Y-135877585D01*
X158926066Y-135872270D01*
X159554120Y-135869323D01*
X159946677Y-135868834D01*
X160773990Y-135867480D01*
X161450395Y-135861835D01*
X161994305Y-135849524D01*
X162424134Y-135828171D01*
X162758295Y-135795402D01*
X163015203Y-135748841D01*
X163213271Y-135686114D01*
X163370912Y-135604845D01*
X163506541Y-135502658D01*
X163620954Y-135394901D01*
X163853972Y-135074521D01*
X164007658Y-134685794D01*
X164075271Y-134276023D01*
X164050074Y-133892512D01*
X163925327Y-133582565D01*
X163886362Y-133531842D01*
X163793914Y-133440523D01*
X163677711Y-133365894D01*
X163520815Y-133306249D01*
X163306286Y-133259882D01*
X163017187Y-133225084D01*
X162636577Y-133200149D01*
X162147518Y-133183370D01*
X161533071Y-133173041D01*
X160776296Y-133167453D01*
X160252833Y-133165681D01*
X159619320Y-133163444D01*
X159044228Y-133160102D01*
X158548338Y-133155881D01*
X158152430Y-133151006D01*
X157877282Y-133145703D01*
X157743676Y-133140197D01*
X157734185Y-133138334D01*
X157748047Y-133052720D01*
X157787019Y-132822277D01*
X157847329Y-132469027D01*
X157925209Y-132014994D01*
X158016889Y-131482202D01*
X158114599Y-130915834D01*
X158247830Y-130131071D01*
X158349881Y-129494820D01*
X158422455Y-128989479D01*
X158467253Y-128597450D01*
X158485977Y-128301134D01*
X158480329Y-128082930D01*
X158452011Y-127925239D01*
X158413120Y-127828840D01*
X158229822Y-127652384D01*
X157931388Y-127541903D01*
X157558230Y-127496447D01*
X157150760Y-127515069D01*
X156749391Y-127596821D01*
X156394533Y-127740753D01*
X156192103Y-127880950D01*
X156068338Y-128015385D01*
X155957735Y-128196836D01*
X155854659Y-128444566D01*
X155753473Y-128777840D01*
X155648541Y-129215922D01*
X155534228Y-129778077D01*
X155404898Y-130483567D01*
X155366142Y-130704167D01*
X155266200Y-131275902D01*
X155173835Y-131802089D01*
X155093699Y-132256389D01*
X155030448Y-132612466D01*
X154988735Y-132843981D01*
X154975919Y-132912460D01*
X154932786Y-133131086D01*
X152248226Y-133124126D01*
X149563666Y-133117167D01*
X149169685Y-133348772D01*
X148795063Y-133662120D01*
X148518107Y-134085080D01*
X148362014Y-134575183D01*
X148336000Y-134875023D01*
X147338808Y-134875023D01*
X147339553Y-134852834D01*
X147435087Y-134122194D01*
X147666036Y-133492440D01*
X148031689Y-132964713D01*
X148531333Y-132540149D01*
X148921344Y-132322978D01*
X149064470Y-132257590D01*
X149197118Y-132206257D01*
X149341669Y-132167002D01*
X149520502Y-132137848D01*
X149755997Y-132116816D01*
X150070533Y-132101930D01*
X150486491Y-132091213D01*
X151026250Y-132082686D01*
X151712190Y-132074373D01*
X151738408Y-132074070D01*
X154082484Y-132046973D01*
X154127825Y-131820070D01*
X154156609Y-131664940D01*
X154208465Y-131374671D01*
X154277797Y-130981015D01*
X154359009Y-130515720D01*
X154434410Y-130080609D01*
X154529745Y-129557822D01*
X154629753Y-129059654D01*
X154726176Y-128623871D01*
X154810754Y-128288242D01*
X154862983Y-128120822D01*
X155161367Y-127542541D01*
X155575739Y-127086214D01*
X156101190Y-126755226D01*
X156732810Y-126552965D01*
X157226000Y-126490348D01*
X157903503Y-126503627D01*
G36*
X194037212Y-141870737D02*
G01*
X195044126Y-142125742D01*
X195995963Y-142509240D01*
X196869073Y-143019001D01*
X197350292Y-143388774D01*
X197940577Y-143986915D01*
X198471968Y-144713773D01*
X198921878Y-145532673D01*
X199267723Y-146406936D01*
X199325795Y-146596821D01*
X199399132Y-146871515D01*
X199451301Y-147133741D01*
X199485733Y-147421177D01*
X199505860Y-147771500D01*
X199515116Y-148222388D01*
X199517000Y-148695834D01*
X199506197Y-149406295D01*
X199468313Y-149989535D01*
X199395133Y-150486612D01*
X199278446Y-150938584D01*
X199110037Y-151386508D01*
X198881748Y-151871331D01*
X198423339Y-152596865D01*
X197824770Y-153250716D01*
X197105122Y-153818783D01*
X196283478Y-154286962D01*
X195378920Y-154641152D01*
X194985274Y-154750949D01*
X194599707Y-154823191D01*
X194093938Y-154885243D01*
X193516940Y-154934298D01*
X192917681Y-154967547D01*
X192345134Y-154982180D01*
X191848270Y-154975391D01*
X191516000Y-154949914D01*
X190824458Y-154820216D01*
X190077467Y-154610787D01*
X189353488Y-154345534D01*
X188976000Y-154175995D01*
X188149590Y-153681295D01*
X187431406Y-153061395D01*
X186832723Y-152329932D01*
X186364820Y-151500540D01*
X186054136Y-150643167D01*
X185975855Y-150251106D01*
X185915814Y-149739314D01*
X185875883Y-149156600D01*
X185857932Y-148551773D01*
X185860782Y-148272500D01*
X188999320Y-148272500D01*
X189007279Y-149165520D01*
X189111645Y-149931634D01*
X189317324Y-150586418D01*
X189629221Y-151145447D01*
X190052241Y-151624297D01*
X190055896Y-151627670D01*
X190616377Y-152033575D01*
X191281027Y-152326729D01*
X192022206Y-152500683D01*
X192812276Y-152548991D01*
X193623597Y-152465204D01*
X193636082Y-152462852D01*
X194374847Y-152246465D01*
X195006938Y-151900972D01*
X195528252Y-151432002D01*
X195934690Y-150845181D01*
X196222148Y-150146136D01*
X196386527Y-149340493D01*
X196426666Y-148634381D01*
X196375735Y-147911458D01*
X196233604Y-147169495D01*
X196016271Y-146481513D01*
X195892981Y-146198167D01*
X195617533Y-145738290D01*
X195255735Y-145289232D01*
X194849902Y-144895475D01*
X194442348Y-144601503D01*
X194306008Y-144529897D01*
X193597415Y-144284418D01*
X192866451Y-144184848D01*
X192138658Y-144224961D01*
X191439575Y-144398528D01*
X190794742Y-144699322D01*
X190229699Y-145121118D01*
X189787808Y-145631517D01*
X189460518Y-146177636D01*
X189230228Y-146741506D01*
X189083679Y-147367535D01*
X189007613Y-148100134D01*
X188999320Y-148272500D01*
X185860782Y-148272500D01*
X185863832Y-147973641D01*
X185895452Y-147471014D01*
X185924010Y-147247366D01*
X186146534Y-146288747D01*
X186491726Y-145349975D01*
X186705301Y-144907409D01*
X186973911Y-144490089D01*
X187349928Y-144028500D01*
X187793736Y-143562383D01*
X188265717Y-143131480D01*
X188726256Y-142775533D01*
X189004223Y-142601236D01*
X189931777Y-142180295D01*
X190922503Y-141899006D01*
X191952751Y-141755138D01*
X192998870Y-141746459D01*
X194037212Y-141870737D01*
G37*
X194037212Y-141870737D02*
X195044126Y-142125742D01*
X195995963Y-142509240D01*
X196869073Y-143019001D01*
X197350292Y-143388774D01*
X197940577Y-143986915D01*
X198471968Y-144713773D01*
X198921878Y-145532673D01*
X199267723Y-146406936D01*
X199325795Y-146596821D01*
X199399132Y-146871515D01*
X199451301Y-147133741D01*
X199485733Y-147421177D01*
X199505860Y-147771500D01*
X199515116Y-148222388D01*
X199517000Y-148695834D01*
X199506197Y-149406295D01*
X199468313Y-149989535D01*
X199395133Y-150486612D01*
X199278446Y-150938584D01*
X199110037Y-151386508D01*
X198881748Y-151871331D01*
X198423339Y-152596865D01*
X197824770Y-153250716D01*
X197105122Y-153818783D01*
X196283478Y-154286962D01*
X195378920Y-154641152D01*
X194985274Y-154750949D01*
X194599707Y-154823191D01*
X194093938Y-154885243D01*
X193516940Y-154934298D01*
X192917681Y-154967547D01*
X192345134Y-154982180D01*
X191848270Y-154975391D01*
X191516000Y-154949914D01*
X190824458Y-154820216D01*
X190077467Y-154610787D01*
X189353488Y-154345534D01*
X188976000Y-154175995D01*
X188149590Y-153681295D01*
X187431406Y-153061395D01*
X186832723Y-152329932D01*
X186364820Y-151500540D01*
X186054136Y-150643167D01*
X185975855Y-150251106D01*
X185915814Y-149739314D01*
X185875883Y-149156600D01*
X185857932Y-148551773D01*
X185860782Y-148272500D01*
X188999320Y-148272500D01*
X189007279Y-149165520D01*
X189111645Y-149931634D01*
X189317324Y-150586418D01*
X189629221Y-151145447D01*
X190052241Y-151624297D01*
X190055896Y-151627670D01*
X190616377Y-152033575D01*
X191281027Y-152326729D01*
X192022206Y-152500683D01*
X192812276Y-152548991D01*
X193623597Y-152465204D01*
X193636082Y-152462852D01*
X194374847Y-152246465D01*
X195006938Y-151900972D01*
X195528252Y-151432002D01*
X195934690Y-150845181D01*
X196222148Y-150146136D01*
X196386527Y-149340493D01*
X196426666Y-148634381D01*
X196375735Y-147911458D01*
X196233604Y-147169495D01*
X196016271Y-146481513D01*
X195892981Y-146198167D01*
X195617533Y-145738290D01*
X195255735Y-145289232D01*
X194849902Y-144895475D01*
X194442348Y-144601503D01*
X194306008Y-144529897D01*
X193597415Y-144284418D01*
X192866451Y-144184848D01*
X192138658Y-144224961D01*
X191439575Y-144398528D01*
X190794742Y-144699322D01*
X190229699Y-145121118D01*
X189787808Y-145631517D01*
X189460518Y-146177636D01*
X189230228Y-146741506D01*
X189083679Y-147367535D01*
X189007613Y-148100134D01*
X188999320Y-148272500D01*
X185860782Y-148272500D01*
X185863832Y-147973641D01*
X185895452Y-147471014D01*
X185924010Y-147247366D01*
X186146534Y-146288747D01*
X186491726Y-145349975D01*
X186705301Y-144907409D01*
X186973911Y-144490089D01*
X187349928Y-144028500D01*
X187793736Y-143562383D01*
X188265717Y-143131480D01*
X188726256Y-142775533D01*
X189004223Y-142601236D01*
X189931777Y-142180295D01*
X190922503Y-141899006D01*
X191952751Y-141755138D01*
X192998870Y-141746459D01*
X194037212Y-141870737D01*
G36*
X172216036Y-132752852D02*
G01*
X172666072Y-132830990D01*
X173014618Y-133008667D01*
X173313336Y-133313185D01*
X173338118Y-133345836D01*
X173384212Y-133419073D01*
X173421847Y-133515165D01*
X173452556Y-133652945D01*
X173477875Y-133851249D01*
X173499339Y-134128910D01*
X173518481Y-134504765D01*
X173536837Y-134997646D01*
X173555941Y-135626390D01*
X173572242Y-136219271D01*
X173591590Y-137015229D01*
X173609243Y-137883335D01*
X173624429Y-138774256D01*
X173636378Y-139638658D01*
X173644319Y-140427207D01*
X173647393Y-141027092D01*
X173651333Y-143179684D01*
X173841833Y-143006053D01*
X174388093Y-142610582D01*
X175056976Y-142294368D01*
X175817878Y-142064582D01*
X176640198Y-141928397D01*
X177493333Y-141892983D01*
X178307118Y-141959597D01*
X179353440Y-142190721D01*
X180307672Y-142559172D01*
X181162455Y-143055668D01*
X181910431Y-143670927D01*
X182544241Y-144395667D01*
X183056528Y-145220605D01*
X183439933Y-146136460D01*
X183687098Y-147133950D01*
X183790664Y-148203792D01*
X183781434Y-148865167D01*
X183666271Y-149897397D01*
X183431777Y-150822581D01*
X183068681Y-151662359D01*
X182567710Y-152438372D01*
X181948666Y-153143237D01*
X181382367Y-153661620D01*
X180817693Y-154064190D01*
X180202353Y-154381551D01*
X179484056Y-154644312D01*
X179278514Y-154706148D01*
X178625005Y-154853909D01*
X177908755Y-154945059D01*
X177188202Y-154976384D01*
X176521781Y-154944668D01*
X176106666Y-154880644D01*
X175277648Y-154657287D01*
X174522099Y-154366282D01*
X173870123Y-154021502D01*
X173351820Y-153636818D01*
X173297325Y-153586037D01*
X172985651Y-153287178D01*
X172770834Y-153531506D01*
X172631537Y-153703661D01*
X172557062Y-153822350D01*
X172553342Y-153836591D01*
X172481854Y-153938541D01*
X172300751Y-154090687D01*
X172051110Y-154265990D01*
X171774009Y-154437410D01*
X171510525Y-154577906D01*
X171301833Y-154660414D01*
X170844910Y-154700484D01*
X170409616Y-154590117D01*
X170027503Y-154347920D01*
X169730123Y-153992498D01*
X169575385Y-153642344D01*
X169529351Y-153391768D01*
X169560504Y-153152073D01*
X169682625Y-152889909D01*
X169909495Y-152571925D01*
X170124133Y-152314320D01*
X170372228Y-151991528D01*
X170512691Y-151707948D01*
X170566755Y-151480964D01*
X170573875Y-151341896D01*
X170578356Y-151045819D01*
X170580282Y-150605036D01*
X170579739Y-150031850D01*
X170576810Y-149338563D01*
X170571580Y-148537478D01*
X170564132Y-147640898D01*
X170554552Y-146661126D01*
X170547178Y-145994808D01*
X173736000Y-145994808D01*
X173740886Y-147345321D01*
X173753313Y-148294794D01*
X173782843Y-149111455D01*
X173828844Y-149787595D01*
X173890689Y-150315506D01*
X173967747Y-150687477D01*
X174026671Y-150843885D01*
X174343305Y-151294793D01*
X174791477Y-151708192D01*
X175333788Y-152058124D01*
X175932837Y-152318633D01*
X176297264Y-152419773D01*
X176751243Y-152505156D01*
X177120533Y-152536215D01*
X177480096Y-152515053D01*
X177809610Y-152462223D01*
X178501277Y-152250858D01*
X179111092Y-151901113D01*
X179631514Y-151426763D01*
X180055002Y-150841586D01*
X180374015Y-150159356D01*
X180581013Y-149393850D01*
X180668454Y-148558845D01*
X180628798Y-147668115D01*
X180589625Y-147383500D01*
X180396874Y-146640297D01*
X180075049Y-145970268D01*
X179639331Y-145395969D01*
X179104902Y-144939956D01*
X178837344Y-144779928D01*
X178100075Y-144482621D01*
X177337120Y-144345117D01*
X176568661Y-144364215D01*
X175814882Y-144536714D01*
X175095967Y-144859416D01*
X174432099Y-145329120D01*
X174234919Y-145509623D01*
X173736000Y-145994808D01*
X170547178Y-145994808D01*
X170542924Y-145610464D01*
X170529331Y-144501214D01*
X170513859Y-143345680D01*
X170508291Y-142951812D01*
X170491549Y-141776242D01*
X170475527Y-140637740D01*
X170460394Y-139549157D01*
X170446321Y-138523346D01*
X170433477Y-137573158D01*
X170422034Y-136711446D01*
X170412160Y-135951061D01*
X170404026Y-135304855D01*
X170397803Y-134785681D01*
X170393661Y-134406389D01*
X170391769Y-134179833D01*
X170391666Y-134144527D01*
X170391666Y-133478555D01*
X170759825Y-133151969D01*
X171060711Y-132926080D01*
X171372024Y-132793659D01*
X171744362Y-132740838D01*
X172216036Y-132752852D01*
G37*
X172216036Y-132752852D02*
X172666072Y-132830990D01*
X173014618Y-133008667D01*
X173313336Y-133313185D01*
X173338118Y-133345836D01*
X173384212Y-133419073D01*
X173421847Y-133515165D01*
X173452556Y-133652945D01*
X173477875Y-133851249D01*
X173499339Y-134128910D01*
X173518481Y-134504765D01*
X173536837Y-134997646D01*
X173555941Y-135626390D01*
X173572242Y-136219271D01*
X173591590Y-137015229D01*
X173609243Y-137883335D01*
X173624429Y-138774256D01*
X173636378Y-139638658D01*
X173644319Y-140427207D01*
X173647393Y-141027092D01*
X173651333Y-143179684D01*
X173841833Y-143006053D01*
X174388093Y-142610582D01*
X175056976Y-142294368D01*
X175817878Y-142064582D01*
X176640198Y-141928397D01*
X177493333Y-141892983D01*
X178307118Y-141959597D01*
X179353440Y-142190721D01*
X180307672Y-142559172D01*
X181162455Y-143055668D01*
X181910431Y-143670927D01*
X182544241Y-144395667D01*
X183056528Y-145220605D01*
X183439933Y-146136460D01*
X183687098Y-147133950D01*
X183790664Y-148203792D01*
X183781434Y-148865167D01*
X183666271Y-149897397D01*
X183431777Y-150822581D01*
X183068681Y-151662359D01*
X182567710Y-152438372D01*
X181948666Y-153143237D01*
X181382367Y-153661620D01*
X180817693Y-154064190D01*
X180202353Y-154381551D01*
X179484056Y-154644312D01*
X179278514Y-154706148D01*
X178625005Y-154853909D01*
X177908755Y-154945059D01*
X177188202Y-154976384D01*
X176521781Y-154944668D01*
X176106666Y-154880644D01*
X175277648Y-154657287D01*
X174522099Y-154366282D01*
X173870123Y-154021502D01*
X173351820Y-153636818D01*
X173297325Y-153586037D01*
X172985651Y-153287178D01*
X172770834Y-153531506D01*
X172631537Y-153703661D01*
X172557062Y-153822350D01*
X172553342Y-153836591D01*
X172481854Y-153938541D01*
X172300751Y-154090687D01*
X172051110Y-154265990D01*
X171774009Y-154437410D01*
X171510525Y-154577906D01*
X171301833Y-154660414D01*
X170844910Y-154700484D01*
X170409616Y-154590117D01*
X170027503Y-154347920D01*
X169730123Y-153992498D01*
X169575385Y-153642344D01*
X169529351Y-153391768D01*
X169560504Y-153152073D01*
X169682625Y-152889909D01*
X169909495Y-152571925D01*
X170124133Y-152314320D01*
X170372228Y-151991528D01*
X170512691Y-151707948D01*
X170566755Y-151480964D01*
X170573875Y-151341896D01*
X170578356Y-151045819D01*
X170580282Y-150605036D01*
X170579739Y-150031850D01*
X170576810Y-149338563D01*
X170571580Y-148537478D01*
X170564132Y-147640898D01*
X170554552Y-146661126D01*
X170547178Y-145994808D01*
X173736000Y-145994808D01*
X173740886Y-147345321D01*
X173753313Y-148294794D01*
X173782843Y-149111455D01*
X173828844Y-149787595D01*
X173890689Y-150315506D01*
X173967747Y-150687477D01*
X174026671Y-150843885D01*
X174343305Y-151294793D01*
X174791477Y-151708192D01*
X175333788Y-152058124D01*
X175932837Y-152318633D01*
X176297264Y-152419773D01*
X176751243Y-152505156D01*
X177120533Y-152536215D01*
X177480096Y-152515053D01*
X177809610Y-152462223D01*
X178501277Y-152250858D01*
X179111092Y-151901113D01*
X179631514Y-151426763D01*
X180055002Y-150841586D01*
X180374015Y-150159356D01*
X180581013Y-149393850D01*
X180668454Y-148558845D01*
X180628798Y-147668115D01*
X180589625Y-147383500D01*
X180396874Y-146640297D01*
X180075049Y-145970268D01*
X179639331Y-145395969D01*
X179104902Y-144939956D01*
X178837344Y-144779928D01*
X178100075Y-144482621D01*
X177337120Y-144345117D01*
X176568661Y-144364215D01*
X175814882Y-144536714D01*
X175095967Y-144859416D01*
X174432099Y-145329120D01*
X174234919Y-145509623D01*
X173736000Y-145994808D01*
X170547178Y-145994808D01*
X170542924Y-145610464D01*
X170529331Y-144501214D01*
X170513859Y-143345680D01*
X170508291Y-142951812D01*
X170491549Y-141776242D01*
X170475527Y-140637740D01*
X170460394Y-139549157D01*
X170446321Y-138523346D01*
X170433477Y-137573158D01*
X170422034Y-136711446D01*
X170412160Y-135951061D01*
X170404026Y-135304855D01*
X170397803Y-134785681D01*
X170393661Y-134406389D01*
X170391769Y-134179833D01*
X170391666Y-134144527D01*
X170391666Y-133478555D01*
X170759825Y-133151969D01*
X171060711Y-132926080D01*
X171372024Y-132793659D01*
X171744362Y-132740838D01*
X172216036Y-132752852D01*
G36*
X90591250Y-137909629D02*
G01*
X91019358Y-138089182D01*
X91171168Y-138197679D01*
X91319399Y-138330097D01*
X91430635Y-138460851D01*
X91506508Y-138612439D01*
X91548646Y-138807362D01*
X91558682Y-139068119D01*
X91538245Y-139417209D01*
X91488966Y-139877131D01*
X91412475Y-140470385D01*
X91362550Y-140838581D01*
X91285481Y-141404553D01*
X91214947Y-141925686D01*
X91154610Y-142374656D01*
X91108136Y-142724143D01*
X91079188Y-142946823D01*
X91072439Y-143002000D01*
X91045993Y-143234834D01*
X91899163Y-143239612D01*
X92456474Y-143258608D01*
X92873893Y-143313325D01*
X93178461Y-143411052D01*
X93397216Y-143559079D01*
X93494546Y-143669661D01*
X93647892Y-143997535D01*
X93706715Y-144397504D01*
X93664142Y-144796782D01*
X93614985Y-144945302D01*
X93499760Y-145172664D01*
X93354399Y-145337726D01*
X93150790Y-145451361D01*
X92860819Y-145524440D01*
X92456375Y-145567833D01*
X91944370Y-145591342D01*
X90866716Y-145624919D01*
X90810199Y-146737043D01*
X90795095Y-147248036D01*
X90794974Y-147845821D01*
X90808158Y-148494464D01*
X90832970Y-149158033D01*
X90867733Y-149800597D01*
X90910770Y-150386223D01*
X90960403Y-150878977D01*
X91014956Y-151242929D01*
X91022163Y-151278167D01*
X91167114Y-151794152D01*
X91353131Y-152155486D01*
X91589400Y-152373826D01*
X91885111Y-152460826D01*
X91956613Y-152463500D01*
X92255458Y-152401836D01*
X92470866Y-152210095D01*
X92610718Y-151878156D01*
X92668792Y-151548967D01*
X92743576Y-151042153D01*
X92848758Y-150679842D01*
X93004785Y-150437497D01*
X93232105Y-150290580D01*
X93551166Y-150214554D01*
X93799138Y-150192532D01*
X94345590Y-150213692D01*
X94767900Y-150347599D01*
X95067961Y-150596630D01*
X95247670Y-150963162D01*
X95308921Y-151449571D01*
X95259243Y-152024062D01*
X95060315Y-152771150D01*
X94727961Y-153426167D01*
X94276807Y-153979230D01*
X93721475Y-154420458D01*
X93076591Y-154739970D01*
X92356778Y-154927883D01*
X91576660Y-154974317D01*
X90982317Y-154914008D01*
X90413704Y-154751736D01*
X89844913Y-154472090D01*
X89341920Y-154111178D01*
X89121019Y-153895352D01*
X88760781Y-153423332D01*
X88458517Y-152867080D01*
X88211618Y-152214668D01*
X88017471Y-151454168D01*
X87873465Y-150573653D01*
X87776991Y-149561196D01*
X87725437Y-148404868D01*
X87714666Y-147470569D01*
X87714666Y-145534311D01*
X87143166Y-145480409D01*
X86631307Y-145410780D01*
X86255934Y-145304884D01*
X85985865Y-145150126D01*
X85789917Y-144933911D01*
X85789846Y-144933806D01*
X85632484Y-144573652D01*
X85592584Y-144173817D01*
X85662550Y-143781998D01*
X85834788Y-143445892D01*
X86059982Y-143237111D01*
X86230920Y-143151428D01*
X86434776Y-143099067D01*
X86716548Y-143072826D01*
X87121236Y-143065503D01*
X87132228Y-143065500D01*
X87926803Y-143065500D01*
X88123870Y-141562667D01*
X88236684Y-140725026D01*
X88337409Y-140038827D01*
X88431010Y-139487042D01*
X88522455Y-139052641D01*
X88616709Y-138718595D01*
X88718738Y-138467873D01*
X88833508Y-138283447D01*
X88965985Y-138148287D01*
X89121136Y-138045363D01*
X89154807Y-138027416D01*
X89605865Y-137874262D01*
X90102383Y-137836494D01*
X90591250Y-137909629D01*
G37*
X90591250Y-137909629D02*
X91019358Y-138089182D01*
X91171168Y-138197679D01*
X91319399Y-138330097D01*
X91430635Y-138460851D01*
X91506508Y-138612439D01*
X91548646Y-138807362D01*
X91558682Y-139068119D01*
X91538245Y-139417209D01*
X91488966Y-139877131D01*
X91412475Y-140470385D01*
X91362550Y-140838581D01*
X91285481Y-141404553D01*
X91214947Y-141925686D01*
X91154610Y-142374656D01*
X91108136Y-142724143D01*
X91079188Y-142946823D01*
X91072439Y-143002000D01*
X91045993Y-143234834D01*
X91899163Y-143239612D01*
X92456474Y-143258608D01*
X92873893Y-143313325D01*
X93178461Y-143411052D01*
X93397216Y-143559079D01*
X93494546Y-143669661D01*
X93647892Y-143997535D01*
X93706715Y-144397504D01*
X93664142Y-144796782D01*
X93614985Y-144945302D01*
X93499760Y-145172664D01*
X93354399Y-145337726D01*
X93150790Y-145451361D01*
X92860819Y-145524440D01*
X92456375Y-145567833D01*
X91944370Y-145591342D01*
X90866716Y-145624919D01*
X90810199Y-146737043D01*
X90795095Y-147248036D01*
X90794974Y-147845821D01*
X90808158Y-148494464D01*
X90832970Y-149158033D01*
X90867733Y-149800597D01*
X90910770Y-150386223D01*
X90960403Y-150878977D01*
X91014956Y-151242929D01*
X91022163Y-151278167D01*
X91167114Y-151794152D01*
X91353131Y-152155486D01*
X91589400Y-152373826D01*
X91885111Y-152460826D01*
X91956613Y-152463500D01*
X92255458Y-152401836D01*
X92470866Y-152210095D01*
X92610718Y-151878156D01*
X92668792Y-151548967D01*
X92743576Y-151042153D01*
X92848758Y-150679842D01*
X93004785Y-150437497D01*
X93232105Y-150290580D01*
X93551166Y-150214554D01*
X93799138Y-150192532D01*
X94345590Y-150213692D01*
X94767900Y-150347599D01*
X95067961Y-150596630D01*
X95247670Y-150963162D01*
X95308921Y-151449571D01*
X95259243Y-152024062D01*
X95060315Y-152771150D01*
X94727961Y-153426167D01*
X94276807Y-153979230D01*
X93721475Y-154420458D01*
X93076591Y-154739970D01*
X92356778Y-154927883D01*
X91576660Y-154974317D01*
X90982317Y-154914008D01*
X90413704Y-154751736D01*
X89844913Y-154472090D01*
X89341920Y-154111178D01*
X89121019Y-153895352D01*
X88760781Y-153423332D01*
X88458517Y-152867080D01*
X88211618Y-152214668D01*
X88017471Y-151454168D01*
X87873465Y-150573653D01*
X87776991Y-149561196D01*
X87725437Y-148404868D01*
X87714666Y-147470569D01*
X87714666Y-145534311D01*
X87143166Y-145480409D01*
X86631307Y-145410780D01*
X86255934Y-145304884D01*
X85985865Y-145150126D01*
X85789917Y-144933911D01*
X85789846Y-144933806D01*
X85632484Y-144573652D01*
X85592584Y-144173817D01*
X85662550Y-143781998D01*
X85834788Y-143445892D01*
X86059982Y-143237111D01*
X86230920Y-143151428D01*
X86434776Y-143099067D01*
X86716548Y-143072826D01*
X87121236Y-143065503D01*
X87132228Y-143065500D01*
X87926803Y-143065500D01*
X88123870Y-141562667D01*
X88236684Y-140725026D01*
X88337409Y-140038827D01*
X88431010Y-139487042D01*
X88522455Y-139052641D01*
X88616709Y-138718595D01*
X88718738Y-138467873D01*
X88833508Y-138283447D01*
X88965985Y-138148287D01*
X89121136Y-138045363D01*
X89154807Y-138027416D01*
X89605865Y-137874262D01*
X90102383Y-137836494D01*
X90591250Y-137909629D01*
G36*
X252535521Y-141594386D02*
G01*
X253354589Y-141746513D01*
X254120012Y-142009443D01*
X254812859Y-142378525D01*
X255414203Y-142849109D01*
X255905115Y-143416544D01*
X256203113Y-143931744D01*
X256389804Y-144440886D01*
X256504294Y-144987610D01*
X256535908Y-145506331D01*
X256506881Y-145797823D01*
X256358756Y-146165921D01*
X256080528Y-146442631D01*
X255690320Y-146618436D01*
X255206255Y-146683818D01*
X254858126Y-146663639D01*
X254455230Y-146567935D01*
X254167949Y-146381726D01*
X253972256Y-146080685D01*
X253844125Y-145640484D01*
X253843248Y-145636032D01*
X253676036Y-145088098D01*
X253410309Y-144669907D01*
X253037668Y-144375277D01*
X252549712Y-144198028D01*
X251938042Y-144131979D01*
X251798666Y-144131587D01*
X251364759Y-144156380D01*
X251035738Y-144226165D01*
X250810963Y-144320170D01*
X250431139Y-144588737D01*
X250177011Y-144926185D01*
X250061468Y-145304394D01*
X250097401Y-145695247D01*
X250133882Y-145797235D01*
X250244026Y-146000411D01*
X250406929Y-146187962D01*
X250639612Y-146369096D01*
X250959096Y-146553020D01*
X251382402Y-146748941D01*
X251926552Y-146966066D01*
X252608567Y-147213602D01*
X253009182Y-147352540D01*
X253851902Y-147661791D01*
X254547885Y-147965210D01*
X255118647Y-148276066D01*
X255585702Y-148607627D01*
X255970568Y-148973164D01*
X256286302Y-149373606D01*
X256571147Y-149927100D01*
X256739580Y-150564547D01*
X256791030Y-151246393D01*
X256724926Y-151933081D01*
X256540696Y-152585056D01*
X256338719Y-153003748D01*
X255952552Y-153516248D01*
X255430485Y-153990052D01*
X254805150Y-154402930D01*
X254109177Y-154732649D01*
X253523772Y-154921534D01*
X253022963Y-155021641D01*
X252445386Y-155093011D01*
X251850327Y-155131862D01*
X251297072Y-155134412D01*
X250844905Y-155096878D01*
X250825000Y-155093715D01*
X249901239Y-154868439D01*
X249048720Y-154513106D01*
X248285041Y-154039866D01*
X247627801Y-153460869D01*
X247094597Y-152788267D01*
X246840435Y-152342610D01*
X246674939Y-151984682D01*
X246587055Y-151724986D01*
X246563963Y-151518589D01*
X246574445Y-151410220D01*
X246720438Y-151014540D01*
X247006440Y-150667021D01*
X247404443Y-150394744D01*
X247771271Y-150252944D01*
X248041561Y-150205558D01*
X248288234Y-150233657D01*
X248536954Y-150351869D01*
X248813383Y-150574823D01*
X249143183Y-150917146D01*
X249348355Y-151151937D01*
X249813363Y-151664069D01*
X250225115Y-152043981D01*
X250608088Y-152309892D01*
X250986759Y-152480020D01*
X251216722Y-152542557D01*
X251743663Y-152599912D01*
X252249553Y-152553868D01*
X252710808Y-152417996D01*
X253103847Y-152205872D01*
X253405088Y-151931068D01*
X253590949Y-151607159D01*
X253637847Y-151247718D01*
X253625506Y-151156074D01*
X253554722Y-150921769D01*
X253424865Y-150708716D01*
X253219960Y-150506935D01*
X252924031Y-150306447D01*
X252521103Y-150097274D01*
X251995200Y-149869437D01*
X251330346Y-149612956D01*
X250909666Y-149459658D01*
X250158974Y-149181901D01*
X249547435Y-148935059D01*
X249050599Y-148706370D01*
X248644017Y-148483073D01*
X248303237Y-148252408D01*
X248003809Y-148001614D01*
X247871006Y-147873756D01*
X247519796Y-147486819D01*
X247283032Y-147134126D01*
X247161268Y-146865888D01*
X246958802Y-146099625D01*
X246918343Y-145342395D01*
X247032764Y-144611391D01*
X247294934Y-143923806D01*
X247697725Y-143296833D01*
X248234009Y-142747664D01*
X248896656Y-142293493D01*
X249101355Y-142186917D01*
X249945723Y-141849327D01*
X250812159Y-141641143D01*
X251681734Y-141557712D01*
X252535521Y-141594386D01*
G37*
X252535521Y-141594386D02*
X253354589Y-141746513D01*
X254120012Y-142009443D01*
X254812859Y-142378525D01*
X255414203Y-142849109D01*
X255905115Y-143416544D01*
X256203113Y-143931744D01*
X256389804Y-144440886D01*
X256504294Y-144987610D01*
X256535908Y-145506331D01*
X256506881Y-145797823D01*
X256358756Y-146165921D01*
X256080528Y-146442631D01*
X255690320Y-146618436D01*
X255206255Y-146683818D01*
X254858126Y-146663639D01*
X254455230Y-146567935D01*
X254167949Y-146381726D01*
X253972256Y-146080685D01*
X253844125Y-145640484D01*
X253843248Y-145636032D01*
X253676036Y-145088098D01*
X253410309Y-144669907D01*
X253037668Y-144375277D01*
X252549712Y-144198028D01*
X251938042Y-144131979D01*
X251798666Y-144131587D01*
X251364759Y-144156380D01*
X251035738Y-144226165D01*
X250810963Y-144320170D01*
X250431139Y-144588737D01*
X250177011Y-144926185D01*
X250061468Y-145304394D01*
X250097401Y-145695247D01*
X250133882Y-145797235D01*
X250244026Y-146000411D01*
X250406929Y-146187962D01*
X250639612Y-146369096D01*
X250959096Y-146553020D01*
X251382402Y-146748941D01*
X251926552Y-146966066D01*
X252608567Y-147213602D01*
X253009182Y-147352540D01*
X253851902Y-147661791D01*
X254547885Y-147965210D01*
X255118647Y-148276066D01*
X255585702Y-148607627D01*
X255970568Y-148973164D01*
X256286302Y-149373606D01*
X256571147Y-149927100D01*
X256739580Y-150564547D01*
X256791030Y-151246393D01*
X256724926Y-151933081D01*
X256540696Y-152585056D01*
X256338719Y-153003748D01*
X255952552Y-153516248D01*
X255430485Y-153990052D01*
X254805150Y-154402930D01*
X254109177Y-154732649D01*
X253523772Y-154921534D01*
X253022963Y-155021641D01*
X252445386Y-155093011D01*
X251850327Y-155131862D01*
X251297072Y-155134412D01*
X250844905Y-155096878D01*
X250825000Y-155093715D01*
X249901239Y-154868439D01*
X249048720Y-154513106D01*
X248285041Y-154039866D01*
X247627801Y-153460869D01*
X247094597Y-152788267D01*
X246840435Y-152342610D01*
X246674939Y-151984682D01*
X246587055Y-151724986D01*
X246563963Y-151518589D01*
X246574445Y-151410220D01*
X246720438Y-151014540D01*
X247006440Y-150667021D01*
X247404443Y-150394744D01*
X247771271Y-150252944D01*
X248041561Y-150205558D01*
X248288234Y-150233657D01*
X248536954Y-150351869D01*
X248813383Y-150574823D01*
X249143183Y-150917146D01*
X249348355Y-151151937D01*
X249813363Y-151664069D01*
X250225115Y-152043981D01*
X250608088Y-152309892D01*
X250986759Y-152480020D01*
X251216722Y-152542557D01*
X251743663Y-152599912D01*
X252249553Y-152553868D01*
X252710808Y-152417996D01*
X253103847Y-152205872D01*
X253405088Y-151931068D01*
X253590949Y-151607159D01*
X253637847Y-151247718D01*
X253625506Y-151156074D01*
X253554722Y-150921769D01*
X253424865Y-150708716D01*
X253219960Y-150506935D01*
X252924031Y-150306447D01*
X252521103Y-150097274D01*
X251995200Y-149869437D01*
X251330346Y-149612956D01*
X250909666Y-149459658D01*
X250158974Y-149181901D01*
X249547435Y-148935059D01*
X249050599Y-148706370D01*
X248644017Y-148483073D01*
X248303237Y-148252408D01*
X248003809Y-148001614D01*
X247871006Y-147873756D01*
X247519796Y-147486819D01*
X247283032Y-147134126D01*
X247161268Y-146865888D01*
X246958802Y-146099625D01*
X246918343Y-145342395D01*
X247032764Y-144611391D01*
X247294934Y-143923806D01*
X247697725Y-143296833D01*
X248234009Y-142747664D01*
X248896656Y-142293493D01*
X249101355Y-142186917D01*
X249945723Y-141849327D01*
X250812159Y-141641143D01*
X251681734Y-141557712D01*
X252535521Y-141594386D01*
G36*
X242880577Y-133127340D02*
G01*
X243125557Y-133168958D01*
X243335801Y-133258672D01*
X243493050Y-133355612D01*
X243739194Y-133543197D01*
X243906301Y-133745589D01*
X244004384Y-133996061D01*
X244043460Y-134327886D01*
X244033544Y-134774336D01*
X244011168Y-135076870D01*
X243965711Y-135699792D01*
X243921354Y-136470469D01*
X243878585Y-137367324D01*
X243837892Y-138368779D01*
X243799759Y-139453258D01*
X243764676Y-140599183D01*
X243733128Y-141784976D01*
X243705602Y-142989061D01*
X243682586Y-144189861D01*
X243664566Y-145365797D01*
X243652029Y-146495293D01*
X243645463Y-147556772D01*
X243645353Y-148528656D01*
X243652187Y-149389369D01*
X243666452Y-150117332D01*
X243669450Y-150219834D01*
X243693854Y-150883032D01*
X243725839Y-151405493D01*
X243772317Y-151815811D01*
X243840200Y-152142582D01*
X243936400Y-152414400D01*
X244067828Y-152659860D01*
X244241397Y-152907556D01*
X244353694Y-153050585D01*
X244518017Y-153277787D01*
X244588095Y-153465759D01*
X244589376Y-153695055D01*
X244581527Y-153771846D01*
X244454286Y-154212414D01*
X244199243Y-154578555D01*
X243846293Y-154857527D01*
X243425332Y-155036587D01*
X242966256Y-155102993D01*
X242498961Y-155044003D01*
X242055745Y-154848400D01*
X241587978Y-154480213D01*
X241245713Y-154034112D01*
X241092861Y-153730924D01*
X240995777Y-153508261D01*
X240932271Y-153363104D01*
X240919582Y-153334443D01*
X240859309Y-153380730D01*
X240704583Y-153519879D01*
X240482680Y-153727040D01*
X240345836Y-153857181D01*
X239675291Y-154399688D01*
X238948425Y-154793374D01*
X238154685Y-155041282D01*
X237283517Y-155146456D01*
X236324367Y-155111942D01*
X236090632Y-155084620D01*
X235091819Y-154889694D01*
X234153829Y-154566250D01*
X233764666Y-154388744D01*
X233402125Y-154198168D01*
X233088387Y-153995558D01*
X232776473Y-153745667D01*
X232419407Y-153413248D01*
X232276031Y-153271835D01*
X231690989Y-152621816D01*
X231234718Y-151953770D01*
X230892769Y-151235556D01*
X230650689Y-150435032D01*
X230494027Y-149520054D01*
X230463679Y-149240811D01*
X230439285Y-148647927D01*
X233587503Y-148647927D01*
X233616299Y-149219869D01*
X233682375Y-149709445D01*
X233717289Y-149861423D01*
X234001491Y-150635161D01*
X234405176Y-151290273D01*
X234922272Y-151821754D01*
X235546707Y-152224596D01*
X236272407Y-152493796D01*
X237066666Y-152622445D01*
X237214944Y-152614405D01*
X237468376Y-152583908D01*
X237701666Y-152548765D01*
X238410320Y-152350560D01*
X239060259Y-152007694D01*
X239625136Y-151539970D01*
X240078599Y-150967194D01*
X240268755Y-150619296D01*
X240337690Y-150468381D01*
X240391311Y-150329966D01*
X240431856Y-150180520D01*
X240461563Y-149996514D01*
X240482672Y-149754420D01*
X240497421Y-149430706D01*
X240508049Y-149001845D01*
X240516795Y-148444306D01*
X240523253Y-147944488D01*
X240550840Y-145753810D01*
X240277311Y-145471599D01*
X239982181Y-145232189D01*
X239570398Y-144984896D01*
X239091501Y-144754285D01*
X238595034Y-144564923D01*
X238252000Y-144467324D01*
X237416215Y-144344554D01*
X236629770Y-144373858D01*
X235905326Y-144548052D01*
X235255543Y-144859947D01*
X234693083Y-145302359D01*
X234230608Y-145868099D01*
X233880777Y-146549983D01*
X233723478Y-147037685D01*
X233641224Y-147496857D01*
X233595855Y-148053597D01*
X233587503Y-148647927D01*
X230439285Y-148647927D01*
X230430686Y-148438953D01*
X230473563Y-147588274D01*
X230586300Y-146769286D01*
X230679727Y-146346684D01*
X231000948Y-145428481D01*
X231459959Y-144599418D01*
X232046343Y-143866728D01*
X232749683Y-143237644D01*
X233559565Y-142719396D01*
X234465573Y-142319216D01*
X235457290Y-142044338D01*
X236524302Y-141901991D01*
X237109000Y-141882749D01*
X237929262Y-141914844D01*
X238636712Y-142016740D01*
X239276746Y-142197886D01*
X239877174Y-142458791D01*
X240528683Y-142788547D01*
X240571587Y-142355524D01*
X240585206Y-142163465D01*
X240603230Y-141826948D01*
X240624572Y-141370760D01*
X240648147Y-140819687D01*
X240672869Y-140198516D01*
X240697651Y-139532032D01*
X240707435Y-139255500D01*
X240747997Y-138135144D01*
X240786445Y-137172240D01*
X240823697Y-136354937D01*
X240860669Y-135671380D01*
X240898278Y-135109717D01*
X240937442Y-134658095D01*
X240979077Y-134304660D01*
X241024101Y-134037560D01*
X241073430Y-133844941D01*
X241127982Y-133714950D01*
X241137316Y-133699074D01*
X241407053Y-133402412D01*
X241789223Y-133212573D01*
X242295288Y-133124781D01*
X242533884Y-133117167D01*
X242880577Y-133127340D01*
G37*
X242880577Y-133127340D02*
X243125557Y-133168958D01*
X243335801Y-133258672D01*
X243493050Y-133355612D01*
X243739194Y-133543197D01*
X243906301Y-133745589D01*
X244004384Y-133996061D01*
X244043460Y-134327886D01*
X244033544Y-134774336D01*
X244011168Y-135076870D01*
X243965711Y-135699792D01*
X243921354Y-136470469D01*
X243878585Y-137367324D01*
X243837892Y-138368779D01*
X243799759Y-139453258D01*
X243764676Y-140599183D01*
X243733128Y-141784976D01*
X243705602Y-142989061D01*
X243682586Y-144189861D01*
X243664566Y-145365797D01*
X243652029Y-146495293D01*
X243645463Y-147556772D01*
X243645353Y-148528656D01*
X243652187Y-149389369D01*
X243666452Y-150117332D01*
X243669450Y-150219834D01*
X243693854Y-150883032D01*
X243725839Y-151405493D01*
X243772317Y-151815811D01*
X243840200Y-152142582D01*
X243936400Y-152414400D01*
X244067828Y-152659860D01*
X244241397Y-152907556D01*
X244353694Y-153050585D01*
X244518017Y-153277787D01*
X244588095Y-153465759D01*
X244589376Y-153695055D01*
X244581527Y-153771846D01*
X244454286Y-154212414D01*
X244199243Y-154578555D01*
X243846293Y-154857527D01*
X243425332Y-155036587D01*
X242966256Y-155102993D01*
X242498961Y-155044003D01*
X242055745Y-154848400D01*
X241587978Y-154480213D01*
X241245713Y-154034112D01*
X241092861Y-153730924D01*
X240995777Y-153508261D01*
X240932271Y-153363104D01*
X240919582Y-153334443D01*
X240859309Y-153380730D01*
X240704583Y-153519879D01*
X240482680Y-153727040D01*
X240345836Y-153857181D01*
X239675291Y-154399688D01*
X238948425Y-154793374D01*
X238154685Y-155041282D01*
X237283517Y-155146456D01*
X236324367Y-155111942D01*
X236090632Y-155084620D01*
X235091819Y-154889694D01*
X234153829Y-154566250D01*
X233764666Y-154388744D01*
X233402125Y-154198168D01*
X233088387Y-153995558D01*
X232776473Y-153745667D01*
X232419407Y-153413248D01*
X232276031Y-153271835D01*
X231690989Y-152621816D01*
X231234718Y-151953770D01*
X230892769Y-151235556D01*
X230650689Y-150435032D01*
X230494027Y-149520054D01*
X230463679Y-149240811D01*
X230439285Y-148647927D01*
X233587503Y-148647927D01*
X233616299Y-149219869D01*
X233682375Y-149709445D01*
X233717289Y-149861423D01*
X234001491Y-150635161D01*
X234405176Y-151290273D01*
X234922272Y-151821754D01*
X235546707Y-152224596D01*
X236272407Y-152493796D01*
X237066666Y-152622445D01*
X237214944Y-152614405D01*
X237468376Y-152583908D01*
X237701666Y-152548765D01*
X238410320Y-152350560D01*
X239060259Y-152007694D01*
X239625136Y-151539970D01*
X240078599Y-150967194D01*
X240268755Y-150619296D01*
X240337690Y-150468381D01*
X240391311Y-150329966D01*
X240431856Y-150180520D01*
X240461563Y-149996514D01*
X240482672Y-149754420D01*
X240497421Y-149430706D01*
X240508049Y-149001845D01*
X240516795Y-148444306D01*
X240523253Y-147944488D01*
X240550840Y-145753810D01*
X240277311Y-145471599D01*
X239982181Y-145232189D01*
X239570398Y-144984896D01*
X239091501Y-144754285D01*
X238595034Y-144564923D01*
X238252000Y-144467324D01*
X237416215Y-144344554D01*
X236629770Y-144373858D01*
X235905326Y-144548052D01*
X235255543Y-144859947D01*
X234693083Y-145302359D01*
X234230608Y-145868099D01*
X233880777Y-146549983D01*
X233723478Y-147037685D01*
X233641224Y-147496857D01*
X233595855Y-148053597D01*
X233587503Y-148647927D01*
X230439285Y-148647927D01*
X230430686Y-148438953D01*
X230473563Y-147588274D01*
X230586300Y-146769286D01*
X230679727Y-146346684D01*
X231000948Y-145428481D01*
X231459959Y-144599418D01*
X232046343Y-143866728D01*
X232749683Y-143237644D01*
X233559565Y-142719396D01*
X234465573Y-142319216D01*
X235457290Y-142044338D01*
X236524302Y-141901991D01*
X237109000Y-141882749D01*
X237929262Y-141914844D01*
X238636712Y-142016740D01*
X239276746Y-142197886D01*
X239877174Y-142458791D01*
X240528683Y-142788547D01*
X240571587Y-142355524D01*
X240585206Y-142163465D01*
X240603230Y-141826948D01*
X240624572Y-141370760D01*
X240648147Y-140819687D01*
X240672869Y-140198516D01*
X240697651Y-139532032D01*
X240707435Y-139255500D01*
X240747997Y-138135144D01*
X240786445Y-137172240D01*
X240823697Y-136354937D01*
X240860669Y-135671380D01*
X240898278Y-135109717D01*
X240937442Y-134658095D01*
X240979077Y-134304660D01*
X241024101Y-134037560D01*
X241073430Y-133844941D01*
X241127982Y-133714950D01*
X241137316Y-133699074D01*
X241407053Y-133402412D01*
X241789223Y-133212573D01*
X242295288Y-133124781D01*
X242533884Y-133117167D01*
X242880577Y-133127340D01*
G36*
X219575549Y-141447696D02*
G01*
X219898818Y-141535307D01*
X220141332Y-141704992D01*
X220314950Y-141974316D01*
X220431533Y-142360843D01*
X220502938Y-142882139D01*
X220537802Y-143465805D01*
X220580972Y-144597161D01*
X220913903Y-143994247D01*
X221285130Y-143431154D01*
X221743989Y-142905157D01*
X222248194Y-142459009D01*
X222749588Y-142138413D01*
X223467662Y-141863639D01*
X224204746Y-141742389D01*
X224938761Y-141767360D01*
X225647627Y-141931250D01*
X226309265Y-142226758D01*
X226901595Y-142646581D01*
X227402537Y-143183418D01*
X227776371Y-143800826D01*
X227890792Y-144050843D01*
X227967828Y-144257852D01*
X228014855Y-144465987D01*
X228039249Y-144719385D01*
X228048386Y-145062180D01*
X228049666Y-145436167D01*
X228045671Y-145904478D01*
X228030268Y-146244076D01*
X227998330Y-146495468D01*
X227944731Y-146699157D01*
X227865154Y-146893892D01*
X227561286Y-147388758D01*
X227139171Y-147852684D01*
X226648829Y-148235723D01*
X226358523Y-148398455D01*
X225860362Y-148590603D01*
X225322284Y-148721132D01*
X224781771Y-148787952D01*
X224276308Y-148788971D01*
X223843377Y-148722100D01*
X223520462Y-148585249D01*
X223484074Y-148558747D01*
X223279990Y-148309947D01*
X223165533Y-147986803D01*
X223140187Y-147636443D01*
X223203435Y-147305993D01*
X223354760Y-147042582D01*
X223501944Y-146928695D01*
X223720238Y-146842515D01*
X224018108Y-146754722D01*
X224180397Y-146716450D01*
X224680599Y-146574646D01*
X225044941Y-146383809D01*
X225280963Y-146158262D01*
X225461121Y-145801521D01*
X225515871Y-145385472D01*
X225449530Y-144959645D01*
X225266416Y-144573568D01*
X225128313Y-144406788D01*
X224942311Y-144253514D01*
X224740308Y-144182667D01*
X224463357Y-144166167D01*
X224085457Y-144189343D01*
X223783139Y-144276110D01*
X223494714Y-144452326D01*
X223218513Y-144687956D01*
X222792898Y-145169758D01*
X222397985Y-145791630D01*
X222047335Y-146525182D01*
X221754508Y-147342020D01*
X221533066Y-148213753D01*
X221532004Y-148218974D01*
X221473373Y-148600520D01*
X221418080Y-149151348D01*
X221366128Y-149871436D01*
X221317517Y-150760764D01*
X221282266Y-151563307D01*
X221248291Y-152372224D01*
X221215759Y-153029789D01*
X221181476Y-153553917D01*
X221142248Y-153962525D01*
X221094879Y-154273531D01*
X221036176Y-154504850D01*
X220962943Y-154674400D01*
X220871985Y-154800098D01*
X220760108Y-154899859D01*
X220677006Y-154957745D01*
X220440850Y-155051606D01*
X220097237Y-155117266D01*
X219706413Y-155149964D01*
X219328624Y-155144937D01*
X219024117Y-155097422D01*
X219000434Y-155090284D01*
X218670196Y-154913613D01*
X218383916Y-154637010D01*
X218244915Y-154410834D01*
X218219706Y-154268337D01*
X218195404Y-153961288D01*
X218172179Y-153494466D01*
X218150199Y-152872648D01*
X218129636Y-152100616D01*
X218110656Y-151183147D01*
X218093577Y-150135167D01*
X218076274Y-149051870D01*
X218057506Y-148115788D01*
X218036374Y-147304807D01*
X218011979Y-146596810D01*
X217983421Y-145969681D01*
X217949801Y-145401302D01*
X217910220Y-144869560D01*
X217863778Y-144352336D01*
X217854650Y-144259364D01*
X217803675Y-143713907D01*
X217763358Y-143217372D01*
X217735447Y-142797331D01*
X217721693Y-142481356D01*
X217723846Y-142297019D01*
X217728369Y-142269697D01*
X217916150Y-141927929D01*
X218234825Y-141662352D01*
X218656930Y-141489181D01*
X219155004Y-141424631D01*
X219159666Y-141424594D01*
X219575549Y-141447696D01*
G37*
X219575549Y-141447696D02*
X219898818Y-141535307D01*
X220141332Y-141704992D01*
X220314950Y-141974316D01*
X220431533Y-142360843D01*
X220502938Y-142882139D01*
X220537802Y-143465805D01*
X220580972Y-144597161D01*
X220913903Y-143994247D01*
X221285130Y-143431154D01*
X221743989Y-142905157D01*
X222248194Y-142459009D01*
X222749588Y-142138413D01*
X223467662Y-141863639D01*
X224204746Y-141742389D01*
X224938761Y-141767360D01*
X225647627Y-141931250D01*
X226309265Y-142226758D01*
X226901595Y-142646581D01*
X227402537Y-143183418D01*
X227776371Y-143800826D01*
X227890792Y-144050843D01*
X227967828Y-144257852D01*
X228014855Y-144465987D01*
X228039249Y-144719385D01*
X228048386Y-145062180D01*
X228049666Y-145436167D01*
X228045671Y-145904478D01*
X228030268Y-146244076D01*
X227998330Y-146495468D01*
X227944731Y-146699157D01*
X227865154Y-146893892D01*
X227561286Y-147388758D01*
X227139171Y-147852684D01*
X226648829Y-148235723D01*
X226358523Y-148398455D01*
X225860362Y-148590603D01*
X225322284Y-148721132D01*
X224781771Y-148787952D01*
X224276308Y-148788971D01*
X223843377Y-148722100D01*
X223520462Y-148585249D01*
X223484074Y-148558747D01*
X223279990Y-148309947D01*
X223165533Y-147986803D01*
X223140187Y-147636443D01*
X223203435Y-147305993D01*
X223354760Y-147042582D01*
X223501944Y-146928695D01*
X223720238Y-146842515D01*
X224018108Y-146754722D01*
X224180397Y-146716450D01*
X224680599Y-146574646D01*
X225044941Y-146383809D01*
X225280963Y-146158262D01*
X225461121Y-145801521D01*
X225515871Y-145385472D01*
X225449530Y-144959645D01*
X225266416Y-144573568D01*
X225128313Y-144406788D01*
X224942311Y-144253514D01*
X224740308Y-144182667D01*
X224463357Y-144166167D01*
X224085457Y-144189343D01*
X223783139Y-144276110D01*
X223494714Y-144452326D01*
X223218513Y-144687956D01*
X222792898Y-145169758D01*
X222397985Y-145791630D01*
X222047335Y-146525182D01*
X221754508Y-147342020D01*
X221533066Y-148213753D01*
X221532004Y-148218974D01*
X221473373Y-148600520D01*
X221418080Y-149151348D01*
X221366128Y-149871436D01*
X221317517Y-150760764D01*
X221282266Y-151563307D01*
X221248291Y-152372224D01*
X221215759Y-153029789D01*
X221181476Y-153553917D01*
X221142248Y-153962525D01*
X221094879Y-154273531D01*
X221036176Y-154504850D01*
X220962943Y-154674400D01*
X220871985Y-154800098D01*
X220760108Y-154899859D01*
X220677006Y-154957745D01*
X220440850Y-155051606D01*
X220097237Y-155117266D01*
X219706413Y-155149964D01*
X219328624Y-155144937D01*
X219024117Y-155097422D01*
X219000434Y-155090284D01*
X218670196Y-154913613D01*
X218383916Y-154637010D01*
X218244915Y-154410834D01*
X218219706Y-154268337D01*
X218195404Y-153961288D01*
X218172179Y-153494466D01*
X218150199Y-152872648D01*
X218129636Y-152100616D01*
X218110656Y-151183147D01*
X218093577Y-150135167D01*
X218076274Y-149051870D01*
X218057506Y-148115788D01*
X218036374Y-147304807D01*
X218011979Y-146596810D01*
X217983421Y-145969681D01*
X217949801Y-145401302D01*
X217910220Y-144869560D01*
X217863778Y-144352336D01*
X217854650Y-144259364D01*
X217803675Y-143713907D01*
X217763358Y-143217372D01*
X217735447Y-142797331D01*
X217721693Y-142481356D01*
X217723846Y-142297019D01*
X217728369Y-142269697D01*
X217916150Y-141927929D01*
X218234825Y-141662352D01*
X218656930Y-141489181D01*
X219155004Y-141424631D01*
X219159666Y-141424594D01*
X219575549Y-141447696D01*
G36*
X208490829Y-142399630D02*
G01*
X209075109Y-142554327D01*
X209461428Y-142716736D01*
X209857121Y-142932145D01*
X210215871Y-143170790D01*
X210491358Y-143402908D01*
X210604367Y-143536996D01*
X210744630Y-143683175D01*
X210850960Y-143667407D01*
X210902672Y-143496559D01*
X210904666Y-143437299D01*
X210980064Y-143093122D01*
X211179452Y-142790644D01*
X211457903Y-142593164D01*
X211795579Y-142507094D01*
X212210353Y-142477152D01*
X212623705Y-142503601D01*
X212957113Y-142586703D01*
X212960552Y-142588148D01*
X213172007Y-142689052D01*
X213334119Y-142804462D01*
X213450139Y-142954623D01*
X213523318Y-143159782D01*
X213556909Y-143440186D01*
X213554162Y-143816082D01*
X213518329Y-144307715D01*
X213452663Y-144935333D01*
X213404335Y-145351500D01*
X213348333Y-145873822D01*
X213305417Y-146397891D01*
X213274161Y-146956681D01*
X213253139Y-147583165D01*
X213240928Y-148310316D01*
X213236102Y-149171108D01*
X213235992Y-149246167D01*
X213236659Y-150035297D01*
X213242416Y-150672533D01*
X213255774Y-151175292D01*
X213279240Y-151560992D01*
X213315324Y-151847052D01*
X213366532Y-152050891D01*
X213435374Y-152189927D01*
X213524359Y-152281578D01*
X213635994Y-152343263D01*
X213684763Y-152362428D01*
X213917212Y-152446247D01*
X214195814Y-152544827D01*
X214239905Y-152560250D01*
X214580255Y-152737451D01*
X214794715Y-152999578D01*
X214897771Y-153369764D01*
X214912222Y-153633933D01*
X214853710Y-154117145D01*
X214685132Y-154501950D01*
X214416928Y-154768290D01*
X214286606Y-154836125D01*
X214041640Y-154887673D01*
X213685497Y-154901913D01*
X213271563Y-154881454D01*
X212853220Y-154828907D01*
X212488420Y-154748215D01*
X212238195Y-154626705D01*
X211941699Y-154414207D01*
X211652745Y-154156325D01*
X211425143Y-153898663D01*
X211351444Y-153784683D01*
X211291654Y-153702147D01*
X211218380Y-153706700D01*
X211095835Y-153814060D01*
X210965911Y-153954016D01*
X210449587Y-154411033D01*
X209826186Y-154758045D01*
X209088119Y-154997599D01*
X208227796Y-155132245D01*
X207356289Y-155165931D01*
X206878499Y-155152824D01*
X206396797Y-155122549D01*
X205971744Y-155079823D01*
X205697666Y-155036716D01*
X204825677Y-154773814D01*
X204036670Y-154366129D01*
X203340718Y-153821715D01*
X202747893Y-153148621D01*
X202268270Y-152354901D01*
X202221823Y-152258378D01*
X201945453Y-151604193D01*
X201750912Y-150973867D01*
X201627837Y-150316758D01*
X201565860Y-149582227D01*
X201553275Y-148992167D01*
X201557709Y-148912593D01*
X204687705Y-148912593D01*
X204699625Y-149473640D01*
X204744899Y-149972991D01*
X204798627Y-150262167D01*
X205020300Y-150927046D01*
X205326853Y-151516968D01*
X205700290Y-152007604D01*
X206122620Y-152374629D01*
X206506535Y-152571217D01*
X206942642Y-152671223D01*
X207467211Y-152711400D01*
X208010562Y-152692456D01*
X208503013Y-152615098D01*
X208724775Y-152548712D01*
X209077145Y-152372921D01*
X209399768Y-152138970D01*
X209480622Y-152061878D01*
X209675422Y-151848905D01*
X209824228Y-151651157D01*
X209934673Y-151440459D01*
X210014394Y-151188635D01*
X210071024Y-150867509D01*
X210112198Y-150448907D01*
X210145550Y-149904652D01*
X210163281Y-149542500D01*
X210196531Y-148691666D01*
X210208085Y-147988804D01*
X210196571Y-147413777D01*
X210160615Y-146946449D01*
X210098845Y-146566683D01*
X210009888Y-146254342D01*
X209925429Y-146054119D01*
X209635771Y-145630986D01*
X209217450Y-145254906D01*
X208710696Y-144960752D01*
X208618666Y-144921409D01*
X208258646Y-144832853D01*
X207806658Y-144802612D01*
X207328847Y-144828387D01*
X206891359Y-144907882D01*
X206654708Y-144989615D01*
X206144281Y-145308083D01*
X205682915Y-145773522D01*
X205284463Y-146367274D01*
X204962774Y-147070678D01*
X204843101Y-147430260D01*
X204760340Y-147833805D01*
X204708242Y-148346949D01*
X204687705Y-148912593D01*
X201557709Y-148912593D01*
X201618002Y-147830784D01*
X201817355Y-146771448D01*
X202151855Y-145812818D01*
X202622020Y-144953551D01*
X203228370Y-144192305D01*
X203526418Y-143899062D01*
X204248865Y-143335965D01*
X205048021Y-142889728D01*
X205897841Y-142566664D01*
X206772279Y-142373084D01*
X207645290Y-142315303D01*
X208490829Y-142399630D01*
G37*
X208490829Y-142399630D02*
X209075109Y-142554327D01*
X209461428Y-142716736D01*
X209857121Y-142932145D01*
X210215871Y-143170790D01*
X210491358Y-143402908D01*
X210604367Y-143536996D01*
X210744630Y-143683175D01*
X210850960Y-143667407D01*
X210902672Y-143496559D01*
X210904666Y-143437299D01*
X210980064Y-143093122D01*
X211179452Y-142790644D01*
X211457903Y-142593164D01*
X211795579Y-142507094D01*
X212210353Y-142477152D01*
X212623705Y-142503601D01*
X212957113Y-142586703D01*
X212960552Y-142588148D01*
X213172007Y-142689052D01*
X213334119Y-142804462D01*
X213450139Y-142954623D01*
X213523318Y-143159782D01*
X213556909Y-143440186D01*
X213554162Y-143816082D01*
X213518329Y-144307715D01*
X213452663Y-144935333D01*
X213404335Y-145351500D01*
X213348333Y-145873822D01*
X213305417Y-146397891D01*
X213274161Y-146956681D01*
X213253139Y-147583165D01*
X213240928Y-148310316D01*
X213236102Y-149171108D01*
X213235992Y-149246167D01*
X213236659Y-150035297D01*
X213242416Y-150672533D01*
X213255774Y-151175292D01*
X213279240Y-151560992D01*
X213315324Y-151847052D01*
X213366532Y-152050891D01*
X213435374Y-152189927D01*
X213524359Y-152281578D01*
X213635994Y-152343263D01*
X213684763Y-152362428D01*
X213917212Y-152446247D01*
X214195814Y-152544827D01*
X214239905Y-152560250D01*
X214580255Y-152737451D01*
X214794715Y-152999578D01*
X214897771Y-153369764D01*
X214912222Y-153633933D01*
X214853710Y-154117145D01*
X214685132Y-154501950D01*
X214416928Y-154768290D01*
X214286606Y-154836125D01*
X214041640Y-154887673D01*
X213685497Y-154901913D01*
X213271563Y-154881454D01*
X212853220Y-154828907D01*
X212488420Y-154748215D01*
X212238195Y-154626705D01*
X211941699Y-154414207D01*
X211652745Y-154156325D01*
X211425143Y-153898663D01*
X211351444Y-153784683D01*
X211291654Y-153702147D01*
X211218380Y-153706700D01*
X211095835Y-153814060D01*
X210965911Y-153954016D01*
X210449587Y-154411033D01*
X209826186Y-154758045D01*
X209088119Y-154997599D01*
X208227796Y-155132245D01*
X207356289Y-155165931D01*
X206878499Y-155152824D01*
X206396797Y-155122549D01*
X205971744Y-155079823D01*
X205697666Y-155036716D01*
X204825677Y-154773814D01*
X204036670Y-154366129D01*
X203340718Y-153821715D01*
X202747893Y-153148621D01*
X202268270Y-152354901D01*
X202221823Y-152258378D01*
X201945453Y-151604193D01*
X201750912Y-150973867D01*
X201627837Y-150316758D01*
X201565860Y-149582227D01*
X201553275Y-148992167D01*
X201557709Y-148912593D01*
X204687705Y-148912593D01*
X204699625Y-149473640D01*
X204744899Y-149972991D01*
X204798627Y-150262167D01*
X205020300Y-150927046D01*
X205326853Y-151516968D01*
X205700290Y-152007604D01*
X206122620Y-152374629D01*
X206506535Y-152571217D01*
X206942642Y-152671223D01*
X207467211Y-152711400D01*
X208010562Y-152692456D01*
X208503013Y-152615098D01*
X208724775Y-152548712D01*
X209077145Y-152372921D01*
X209399768Y-152138970D01*
X209480622Y-152061878D01*
X209675422Y-151848905D01*
X209824228Y-151651157D01*
X209934673Y-151440459D01*
X210014394Y-151188635D01*
X210071024Y-150867509D01*
X210112198Y-150448907D01*
X210145550Y-149904652D01*
X210163281Y-149542500D01*
X210196531Y-148691666D01*
X210208085Y-147988804D01*
X210196571Y-147413777D01*
X210160615Y-146946449D01*
X210098845Y-146566683D01*
X210009888Y-146254342D01*
X209925429Y-146054119D01*
X209635771Y-145630986D01*
X209217450Y-145254906D01*
X208710696Y-144960752D01*
X208618666Y-144921409D01*
X208258646Y-144832853D01*
X207806658Y-144802612D01*
X207328847Y-144828387D01*
X206891359Y-144907882D01*
X206654708Y-144989615D01*
X206144281Y-145308083D01*
X205682915Y-145773522D01*
X205284463Y-146367274D01*
X204962774Y-147070678D01*
X204843101Y-147430260D01*
X204760340Y-147833805D01*
X204708242Y-148346949D01*
X204687705Y-148912593D01*
X201557709Y-148912593D01*
X201618002Y-147830784D01*
X201817355Y-146771448D01*
X202151855Y-145812818D01*
X202622020Y-144953551D01*
X203228370Y-144192305D01*
X203526418Y-143899062D01*
X204248865Y-143335965D01*
X205048021Y-142889728D01*
X205897841Y-142566664D01*
X206772279Y-142373084D01*
X207645290Y-142315303D01*
X208490829Y-142399630D01*
G36*
X115440073Y-141447821D02*
G01*
X115771452Y-141537346D01*
X116018897Y-141710600D01*
X116196046Y-141985853D01*
X116316539Y-142381379D01*
X116394013Y-142915448D01*
X116426129Y-143319500D01*
X116452267Y-143729849D01*
X116474710Y-144080264D01*
X116491177Y-144335283D01*
X116499390Y-144459441D01*
X116499610Y-144462500D01*
X116538476Y-144437898D01*
X116634867Y-144293481D01*
X116768523Y-144059844D01*
X116778756Y-144040930D01*
X117097980Y-143544692D01*
X117504099Y-143055960D01*
X117955629Y-142617000D01*
X118411082Y-142270080D01*
X118652888Y-142131515D01*
X119388131Y-141857022D01*
X120142279Y-141738171D01*
X120892143Y-141771402D01*
X121614536Y-141953153D01*
X122286270Y-142279865D01*
X122884156Y-142747975D01*
X122924108Y-142787414D01*
X123408710Y-143369857D01*
X123743572Y-144006265D01*
X123946102Y-144730771D01*
X123961867Y-144822334D01*
X124013835Y-145596048D01*
X123917904Y-146321638D01*
X123682043Y-146982601D01*
X123314218Y-147562433D01*
X122822399Y-148044633D01*
X122232299Y-148404457D01*
X121679374Y-148609329D01*
X121074846Y-148743377D01*
X120477702Y-148798163D01*
X119946927Y-148765249D01*
X119846552Y-148745766D01*
X119454611Y-148615281D01*
X119204655Y-148416169D01*
X119074468Y-148121170D01*
X119041333Y-147757803D01*
X119076963Y-147385305D01*
X119199639Y-147116381D01*
X119433040Y-146926132D01*
X119800846Y-146789657D01*
X120008413Y-146740844D01*
X120350701Y-146652848D01*
X120665622Y-146544454D01*
X120866372Y-146449258D01*
X121158881Y-146176842D01*
X121339367Y-145817061D01*
X121406293Y-145410872D01*
X121358122Y-144999233D01*
X121193315Y-144623100D01*
X120945175Y-144349716D01*
X120643873Y-144208480D01*
X120260973Y-144165139D01*
X119853540Y-144220395D01*
X119555033Y-144332592D01*
X119168033Y-144608972D01*
X118779189Y-145037841D01*
X118401572Y-145603016D01*
X118150875Y-146071167D01*
X117871364Y-146703720D01*
X117645216Y-147363550D01*
X117468526Y-148073937D01*
X117337391Y-148858161D01*
X117247906Y-149739502D01*
X117196168Y-150741240D01*
X117178304Y-151870834D01*
X117167687Y-152706063D01*
X117135275Y-153387949D01*
X117074235Y-153931818D01*
X116977733Y-154352997D01*
X116838935Y-154666814D01*
X116651008Y-154888596D01*
X116407119Y-155033669D01*
X116100434Y-155117362D01*
X115724120Y-155155001D01*
X115713871Y-155155479D01*
X115349699Y-155160646D01*
X115083715Y-155128476D01*
X114846719Y-155047238D01*
X114723333Y-154987574D01*
X114544131Y-154891093D01*
X114399706Y-154792634D01*
X114286297Y-154673747D01*
X114200144Y-154515979D01*
X114137486Y-154300878D01*
X114094562Y-154009993D01*
X114067611Y-153624871D01*
X114052873Y-153127060D01*
X114046587Y-152498109D01*
X114044992Y-151719566D01*
X114044959Y-151659167D01*
X114021550Y-149449689D01*
X113953600Y-147400968D01*
X113841002Y-145510364D01*
X113746755Y-144395751D01*
X113685393Y-143733242D01*
X113642926Y-143216830D01*
X113619554Y-142824313D01*
X113615476Y-142533491D01*
X113630891Y-142322162D01*
X113666000Y-142168125D01*
X113721000Y-142049178D01*
X113768461Y-141978889D01*
X114090280Y-141666137D01*
X114500517Y-141483836D01*
X115011122Y-141423752D01*
X115440073Y-141447821D01*
G37*
X115440073Y-141447821D02*
X115771452Y-141537346D01*
X116018897Y-141710600D01*
X116196046Y-141985853D01*
X116316539Y-142381379D01*
X116394013Y-142915448D01*
X116426129Y-143319500D01*
X116452267Y-143729849D01*
X116474710Y-144080264D01*
X116491177Y-144335283D01*
X116499390Y-144459441D01*
X116499610Y-144462500D01*
X116538476Y-144437898D01*
X116634867Y-144293481D01*
X116768523Y-144059844D01*
X116778756Y-144040930D01*
X117097980Y-143544692D01*
X117504099Y-143055960D01*
X117955629Y-142617000D01*
X118411082Y-142270080D01*
X118652888Y-142131515D01*
X119388131Y-141857022D01*
X120142279Y-141738171D01*
X120892143Y-141771402D01*
X121614536Y-141953153D01*
X122286270Y-142279865D01*
X122884156Y-142747975D01*
X122924108Y-142787414D01*
X123408710Y-143369857D01*
X123743572Y-144006265D01*
X123946102Y-144730771D01*
X123961867Y-144822334D01*
X124013835Y-145596048D01*
X123917904Y-146321638D01*
X123682043Y-146982601D01*
X123314218Y-147562433D01*
X122822399Y-148044633D01*
X122232299Y-148404457D01*
X121679374Y-148609329D01*
X121074846Y-148743377D01*
X120477702Y-148798163D01*
X119946927Y-148765249D01*
X119846552Y-148745766D01*
X119454611Y-148615281D01*
X119204655Y-148416169D01*
X119074468Y-148121170D01*
X119041333Y-147757803D01*
X119076963Y-147385305D01*
X119199639Y-147116381D01*
X119433040Y-146926132D01*
X119800846Y-146789657D01*
X120008413Y-146740844D01*
X120350701Y-146652848D01*
X120665622Y-146544454D01*
X120866372Y-146449258D01*
X121158881Y-146176842D01*
X121339367Y-145817061D01*
X121406293Y-145410872D01*
X121358122Y-144999233D01*
X121193315Y-144623100D01*
X120945175Y-144349716D01*
X120643873Y-144208480D01*
X120260973Y-144165139D01*
X119853540Y-144220395D01*
X119555033Y-144332592D01*
X119168033Y-144608972D01*
X118779189Y-145037841D01*
X118401572Y-145603016D01*
X118150875Y-146071167D01*
X117871364Y-146703720D01*
X117645216Y-147363550D01*
X117468526Y-148073937D01*
X117337391Y-148858161D01*
X117247906Y-149739502D01*
X117196168Y-150741240D01*
X117178304Y-151870834D01*
X117167687Y-152706063D01*
X117135275Y-153387949D01*
X117074235Y-153931818D01*
X116977733Y-154352997D01*
X116838935Y-154666814D01*
X116651008Y-154888596D01*
X116407119Y-155033669D01*
X116100434Y-155117362D01*
X115724120Y-155155001D01*
X115713871Y-155155479D01*
X115349699Y-155160646D01*
X115083715Y-155128476D01*
X114846719Y-155047238D01*
X114723333Y-154987574D01*
X114544131Y-154891093D01*
X114399706Y-154792634D01*
X114286297Y-154673747D01*
X114200144Y-154515979D01*
X114137486Y-154300878D01*
X114094562Y-154009993D01*
X114067611Y-153624871D01*
X114052873Y-153127060D01*
X114046587Y-152498109D01*
X114044992Y-151719566D01*
X114044959Y-151659167D01*
X114021550Y-149449689D01*
X113953600Y-147400968D01*
X113841002Y-145510364D01*
X113746755Y-144395751D01*
X113685393Y-143733242D01*
X113642926Y-143216830D01*
X113619554Y-142824313D01*
X113615476Y-142533491D01*
X113630891Y-142322162D01*
X113666000Y-142168125D01*
X113721000Y-142049178D01*
X113768461Y-141978889D01*
X114090280Y-141666137D01*
X114500517Y-141483836D01*
X115011122Y-141423752D01*
X115440073Y-141447821D01*
G36*
X104142301Y-142370659D02*
G01*
X104908240Y-142544250D01*
X105602300Y-142841469D01*
X106202784Y-143260705D01*
X106303802Y-143353346D01*
X106511416Y-143550155D01*
X106663362Y-143690189D01*
X106726332Y-143742834D01*
X106746233Y-143667971D01*
X106777095Y-143480028D01*
X106789574Y-143390906D01*
X106918471Y-143007331D01*
X107098103Y-142777653D01*
X107246995Y-142642994D01*
X107394569Y-142561585D01*
X107592338Y-142517114D01*
X107891811Y-142493271D01*
X108014548Y-142487465D01*
X108365727Y-142478715D01*
X108602954Y-142496570D01*
X108780777Y-142550835D01*
X108953742Y-142651316D01*
X108963822Y-142658123D01*
X109163144Y-142802485D01*
X109305926Y-142943014D01*
X109397738Y-143107762D01*
X109444149Y-143324785D01*
X109450728Y-143622136D01*
X109423044Y-144027868D01*
X109366668Y-144570036D01*
X109358286Y-144645170D01*
X109290203Y-145338957D01*
X109230164Y-146117181D01*
X109179356Y-146947102D01*
X109138970Y-147795979D01*
X109110192Y-148631070D01*
X109094211Y-149419636D01*
X109092216Y-150128935D01*
X109105395Y-150726227D01*
X109125082Y-151070247D01*
X109170255Y-151553705D01*
X109227229Y-151898290D01*
X109313163Y-152134375D01*
X109445215Y-152292336D01*
X109640543Y-152402546D01*
X109916305Y-152495381D01*
X109932848Y-152500209D01*
X110339869Y-152665849D01*
X110606546Y-152898327D01*
X110757001Y-153224163D01*
X110798908Y-153452418D01*
X110807100Y-153823403D01*
X110718791Y-154163639D01*
X110676892Y-154263857D01*
X110502866Y-154570661D01*
X110282501Y-154770582D01*
X109983916Y-154878061D01*
X109575232Y-154907536D01*
X109283135Y-154895129D01*
X108598421Y-154787055D01*
X108037119Y-154564513D01*
X107596835Y-154226381D01*
X107429416Y-154024971D01*
X107160400Y-153650373D01*
X106723487Y-154063587D01*
X106213461Y-154474760D01*
X105651196Y-154782806D01*
X105012587Y-154995284D01*
X104273533Y-155119754D01*
X103409930Y-155163774D01*
X103216289Y-155163557D01*
X102768158Y-155153994D01*
X102344993Y-155134910D01*
X101995595Y-155109110D01*
X101775148Y-155080685D01*
X100851614Y-154822042D01*
X100030931Y-154431732D01*
X99316439Y-153915096D01*
X98711480Y-153277476D01*
X98219393Y-152524213D01*
X97843520Y-151660649D01*
X97587201Y-150692125D01*
X97453777Y-149623984D01*
X97447720Y-148644470D01*
X100592883Y-148644470D01*
X100605305Y-149158137D01*
X100645937Y-149808971D01*
X100720946Y-150336166D01*
X100842665Y-150783975D01*
X101023426Y-151196653D01*
X101275561Y-151618451D01*
X101301995Y-151658105D01*
X101544152Y-151981000D01*
X101793695Y-152210906D01*
X102122035Y-152411597D01*
X102178897Y-152441272D01*
X102477545Y-152584672D01*
X102725909Y-152667911D01*
X102994184Y-152706757D01*
X103352569Y-152716977D01*
X103406564Y-152717028D01*
X103778840Y-152706002D01*
X104126685Y-152677312D01*
X104382730Y-152636804D01*
X104409012Y-152630081D01*
X104944679Y-152396829D01*
X105406486Y-152028339D01*
X105758055Y-151554508D01*
X105789095Y-151495946D01*
X106045000Y-150994059D01*
X106045000Y-148744280D01*
X106044482Y-148066722D01*
X106041819Y-147536014D01*
X106035345Y-147129673D01*
X106023393Y-146825217D01*
X106004298Y-146600163D01*
X105976392Y-146432028D01*
X105938011Y-146298329D01*
X105887487Y-146176584D01*
X105848748Y-146096054D01*
X105519173Y-145612163D01*
X105056287Y-145208534D01*
X104652301Y-144980153D01*
X104216354Y-144848736D01*
X103698966Y-144797628D01*
X103167378Y-144826104D01*
X102688833Y-144933434D01*
X102516892Y-145003271D01*
X101997671Y-145343739D01*
X101533178Y-145826820D01*
X101139167Y-146430341D01*
X100831389Y-147132129D01*
X100703647Y-147555587D01*
X100638509Y-147871073D01*
X100602533Y-148218622D01*
X100592883Y-148644470D01*
X97447720Y-148644470D01*
X97446588Y-148461565D01*
X97462861Y-148185405D01*
X97611782Y-147139861D01*
X97901632Y-146164345D01*
X98324583Y-145271175D01*
X98872808Y-144472666D01*
X99538478Y-143781133D01*
X100313766Y-143208895D01*
X100793695Y-142944744D01*
X101630180Y-142607738D01*
X102481574Y-142400794D01*
X103326180Y-142322304D01*
X104142301Y-142370659D01*
G37*
X104142301Y-142370659D02*
X104908240Y-142544250D01*
X105602300Y-142841469D01*
X106202784Y-143260705D01*
X106303802Y-143353346D01*
X106511416Y-143550155D01*
X106663362Y-143690189D01*
X106726332Y-143742834D01*
X106746233Y-143667971D01*
X106777095Y-143480028D01*
X106789574Y-143390906D01*
X106918471Y-143007331D01*
X107098103Y-142777653D01*
X107246995Y-142642994D01*
X107394569Y-142561585D01*
X107592338Y-142517114D01*
X107891811Y-142493271D01*
X108014548Y-142487465D01*
X108365727Y-142478715D01*
X108602954Y-142496570D01*
X108780777Y-142550835D01*
X108953742Y-142651316D01*
X108963822Y-142658123D01*
X109163144Y-142802485D01*
X109305926Y-142943014D01*
X109397738Y-143107762D01*
X109444149Y-143324785D01*
X109450728Y-143622136D01*
X109423044Y-144027868D01*
X109366668Y-144570036D01*
X109358286Y-144645170D01*
X109290203Y-145338957D01*
X109230164Y-146117181D01*
X109179356Y-146947102D01*
X109138970Y-147795979D01*
X109110192Y-148631070D01*
X109094211Y-149419636D01*
X109092216Y-150128935D01*
X109105395Y-150726227D01*
X109125082Y-151070247D01*
X109170255Y-151553705D01*
X109227229Y-151898290D01*
X109313163Y-152134375D01*
X109445215Y-152292336D01*
X109640543Y-152402546D01*
X109916305Y-152495381D01*
X109932848Y-152500209D01*
X110339869Y-152665849D01*
X110606546Y-152898327D01*
X110757001Y-153224163D01*
X110798908Y-153452418D01*
X110807100Y-153823403D01*
X110718791Y-154163639D01*
X110676892Y-154263857D01*
X110502866Y-154570661D01*
X110282501Y-154770582D01*
X109983916Y-154878061D01*
X109575232Y-154907536D01*
X109283135Y-154895129D01*
X108598421Y-154787055D01*
X108037119Y-154564513D01*
X107596835Y-154226381D01*
X107429416Y-154024971D01*
X107160400Y-153650373D01*
X106723487Y-154063587D01*
X106213461Y-154474760D01*
X105651196Y-154782806D01*
X105012587Y-154995284D01*
X104273533Y-155119754D01*
X103409930Y-155163774D01*
X103216289Y-155163557D01*
X102768158Y-155153994D01*
X102344993Y-155134910D01*
X101995595Y-155109110D01*
X101775148Y-155080685D01*
X100851614Y-154822042D01*
X100030931Y-154431732D01*
X99316439Y-153915096D01*
X98711480Y-153277476D01*
X98219393Y-152524213D01*
X97843520Y-151660649D01*
X97587201Y-150692125D01*
X97453777Y-149623984D01*
X97447720Y-148644470D01*
X100592883Y-148644470D01*
X100605305Y-149158137D01*
X100645937Y-149808971D01*
X100720946Y-150336166D01*
X100842665Y-150783975D01*
X101023426Y-151196653D01*
X101275561Y-151618451D01*
X101301995Y-151658105D01*
X101544152Y-151981000D01*
X101793695Y-152210906D01*
X102122035Y-152411597D01*
X102178897Y-152441272D01*
X102477545Y-152584672D01*
X102725909Y-152667911D01*
X102994184Y-152706757D01*
X103352569Y-152716977D01*
X103406564Y-152717028D01*
X103778840Y-152706002D01*
X104126685Y-152677312D01*
X104382730Y-152636804D01*
X104409012Y-152630081D01*
X104944679Y-152396829D01*
X105406486Y-152028339D01*
X105758055Y-151554508D01*
X105789095Y-151495946D01*
X106045000Y-150994059D01*
X106045000Y-148744280D01*
X106044482Y-148066722D01*
X106041819Y-147536014D01*
X106035345Y-147129673D01*
X106023393Y-146825217D01*
X106004298Y-146600163D01*
X105976392Y-146432028D01*
X105938011Y-146298329D01*
X105887487Y-146176584D01*
X105848748Y-146096054D01*
X105519173Y-145612163D01*
X105056287Y-145208534D01*
X104652301Y-144980153D01*
X104216354Y-144848736D01*
X103698966Y-144797628D01*
X103167378Y-144826104D01*
X102688833Y-144933434D01*
X102516892Y-145003271D01*
X101997671Y-145343739D01*
X101533178Y-145826820D01*
X101139167Y-146430341D01*
X100831389Y-147132129D01*
X100703647Y-147555587D01*
X100638509Y-147871073D01*
X100602533Y-148218622D01*
X100592883Y-148644470D01*
X97447720Y-148644470D01*
X97446588Y-148461565D01*
X97462861Y-148185405D01*
X97611782Y-147139861D01*
X97901632Y-146164345D01*
X98324583Y-145271175D01*
X98872808Y-144472666D01*
X99538478Y-143781133D01*
X100313766Y-143208895D01*
X100793695Y-142944744D01*
X101630180Y-142607738D01*
X102481574Y-142400794D01*
X103326180Y-142322304D01*
X104142301Y-142370659D01*
G36*
X79602198Y-141622073D02*
G01*
X80450027Y-141810441D01*
X81183311Y-142099519D01*
X81819801Y-142490172D01*
X82367871Y-142980140D01*
X82813057Y-143545446D01*
X83140898Y-144162108D01*
X83336931Y-144806149D01*
X83386696Y-145453590D01*
X83361866Y-145711776D01*
X83226456Y-146090702D01*
X82962592Y-146389289D01*
X82597254Y-146594384D01*
X82157423Y-146692835D01*
X81670079Y-146671489D01*
X81479247Y-146629555D01*
X81203040Y-146526107D01*
X81001216Y-146366619D01*
X80847266Y-146117068D01*
X80714681Y-145743429D01*
X80673228Y-145595054D01*
X80526715Y-145130856D01*
X80359670Y-144796731D01*
X80144518Y-144553564D01*
X79853687Y-144362240D01*
X79776575Y-144323107D01*
X79331427Y-144175083D01*
X78819825Y-144113596D01*
X78302486Y-144138253D01*
X77840131Y-144248663D01*
X77646833Y-144336866D01*
X77264304Y-144603933D01*
X77031480Y-144902494D01*
X76928744Y-145262222D01*
X76919666Y-145436816D01*
X76941528Y-145688808D01*
X77017089Y-145911878D01*
X77161310Y-146116008D01*
X77389154Y-146311177D01*
X77715584Y-146507363D01*
X78155562Y-146714546D01*
X78724050Y-146942706D01*
X79436009Y-147201822D01*
X79708950Y-147297198D01*
X80484511Y-147577752D01*
X81118653Y-147835013D01*
X81635534Y-148081170D01*
X82059310Y-148328412D01*
X82414137Y-148588928D01*
X82606967Y-148759495D01*
X83085844Y-149324390D01*
X83421820Y-149968269D01*
X83609408Y-150671163D01*
X83643117Y-151413101D01*
X83531205Y-152122017D01*
X83269124Y-152813735D01*
X82863478Y-153429864D01*
X82325704Y-153962985D01*
X81667241Y-154405679D01*
X80899529Y-154750526D01*
X80034007Y-154990108D01*
X79082113Y-155117005D01*
X78897261Y-155127546D01*
X78476164Y-155135437D01*
X78052692Y-155124743D01*
X77701027Y-155097835D01*
X77618696Y-155086652D01*
X76803729Y-154888862D01*
X76007647Y-154566533D01*
X75271603Y-154141484D01*
X74636750Y-153635538D01*
X74378466Y-153368560D01*
X74119049Y-153034820D01*
X73870574Y-152647485D01*
X73655212Y-152248938D01*
X73495135Y-151881563D01*
X73412514Y-151587742D01*
X73406000Y-151509618D01*
X73483299Y-151167079D01*
X73694502Y-150831399D01*
X74008562Y-150547725D01*
X74111868Y-150483100D01*
X74483052Y-150296358D01*
X74799545Y-150206491D01*
X75088217Y-150222245D01*
X75375936Y-150352366D01*
X75689572Y-150605599D01*
X76055995Y-150990692D01*
X76207723Y-151165298D01*
X76659183Y-151663800D01*
X77057384Y-152033351D01*
X77429736Y-152293884D01*
X77803650Y-152465331D01*
X78111210Y-152549456D01*
X78586375Y-152592648D01*
X79078692Y-152542885D01*
X79547495Y-152413312D01*
X79952117Y-152217072D01*
X80251894Y-151967307D01*
X80350084Y-151825851D01*
X80448477Y-151499343D01*
X80446769Y-151131650D01*
X80349203Y-150800491D01*
X80288715Y-150701516D01*
X80101665Y-150522411D01*
X79788567Y-150322389D01*
X79340519Y-150097106D01*
X78748617Y-149842219D01*
X78003959Y-149553387D01*
X77722146Y-149449505D01*
X76982859Y-149172049D01*
X76382046Y-148927005D01*
X75894922Y-148701844D01*
X75496699Y-148484035D01*
X75162592Y-148261048D01*
X74867816Y-148020353D01*
X74833176Y-147989015D01*
X74357366Y-147465588D01*
X74030114Y-146888683D01*
X73831508Y-146221918D01*
X73814136Y-146126952D01*
X73760673Y-145346940D01*
X73871352Y-144604044D01*
X74143416Y-143906777D01*
X74574107Y-143263649D01*
X74834016Y-142979031D01*
X75452138Y-142475982D01*
X76177857Y-142078569D01*
X76983446Y-141790631D01*
X77841183Y-141616008D01*
X78723341Y-141558542D01*
X79602198Y-141622073D01*
G37*
X79602198Y-141622073D02*
X80450027Y-141810441D01*
X81183311Y-142099519D01*
X81819801Y-142490172D01*
X82367871Y-142980140D01*
X82813057Y-143545446D01*
X83140898Y-144162108D01*
X83336931Y-144806149D01*
X83386696Y-145453590D01*
X83361866Y-145711776D01*
X83226456Y-146090702D01*
X82962592Y-146389289D01*
X82597254Y-146594384D01*
X82157423Y-146692835D01*
X81670079Y-146671489D01*
X81479247Y-146629555D01*
X81203040Y-146526107D01*
X81001216Y-146366619D01*
X80847266Y-146117068D01*
X80714681Y-145743429D01*
X80673228Y-145595054D01*
X80526715Y-145130856D01*
X80359670Y-144796731D01*
X80144518Y-144553564D01*
X79853687Y-144362240D01*
X79776575Y-144323107D01*
X79331427Y-144175083D01*
X78819825Y-144113596D01*
X78302486Y-144138253D01*
X77840131Y-144248663D01*
X77646833Y-144336866D01*
X77264304Y-144603933D01*
X77031480Y-144902494D01*
X76928744Y-145262222D01*
X76919666Y-145436816D01*
X76941528Y-145688808D01*
X77017089Y-145911878D01*
X77161310Y-146116008D01*
X77389154Y-146311177D01*
X77715584Y-146507363D01*
X78155562Y-146714546D01*
X78724050Y-146942706D01*
X79436009Y-147201822D01*
X79708950Y-147297198D01*
X80484511Y-147577752D01*
X81118653Y-147835013D01*
X81635534Y-148081170D01*
X82059310Y-148328412D01*
X82414137Y-148588928D01*
X82606967Y-148759495D01*
X83085844Y-149324390D01*
X83421820Y-149968269D01*
X83609408Y-150671163D01*
X83643117Y-151413101D01*
X83531205Y-152122017D01*
X83269124Y-152813735D01*
X82863478Y-153429864D01*
X82325704Y-153962985D01*
X81667241Y-154405679D01*
X80899529Y-154750526D01*
X80034007Y-154990108D01*
X79082113Y-155117005D01*
X78897261Y-155127546D01*
X78476164Y-155135437D01*
X78052692Y-155124743D01*
X77701027Y-155097835D01*
X77618696Y-155086652D01*
X76803729Y-154888862D01*
X76007647Y-154566533D01*
X75271603Y-154141484D01*
X74636750Y-153635538D01*
X74378466Y-153368560D01*
X74119049Y-153034820D01*
X73870574Y-152647485D01*
X73655212Y-152248938D01*
X73495135Y-151881563D01*
X73412514Y-151587742D01*
X73406000Y-151509618D01*
X73483299Y-151167079D01*
X73694502Y-150831399D01*
X74008562Y-150547725D01*
X74111868Y-150483100D01*
X74483052Y-150296358D01*
X74799545Y-150206491D01*
X75088217Y-150222245D01*
X75375936Y-150352366D01*
X75689572Y-150605599D01*
X76055995Y-150990692D01*
X76207723Y-151165298D01*
X76659183Y-151663800D01*
X77057384Y-152033351D01*
X77429736Y-152293884D01*
X77803650Y-152465331D01*
X78111210Y-152549456D01*
X78586375Y-152592648D01*
X79078692Y-152542885D01*
X79547495Y-152413312D01*
X79952117Y-152217072D01*
X80251894Y-151967307D01*
X80350084Y-151825851D01*
X80448477Y-151499343D01*
X80446769Y-151131650D01*
X80349203Y-150800491D01*
X80288715Y-150701516D01*
X80101665Y-150522411D01*
X79788567Y-150322389D01*
X79340519Y-150097106D01*
X78748617Y-149842219D01*
X78003959Y-149553387D01*
X77722146Y-149449505D01*
X76982859Y-149172049D01*
X76382046Y-148927005D01*
X75894922Y-148701844D01*
X75496699Y-148484035D01*
X75162592Y-148261048D01*
X74867816Y-148020353D01*
X74833176Y-147989015D01*
X74357366Y-147465588D01*
X74030114Y-146888683D01*
X73831508Y-146221918D01*
X73814136Y-146126952D01*
X73760673Y-145346940D01*
X73871352Y-144604044D01*
X74143416Y-143906777D01*
X74574107Y-143263649D01*
X74834016Y-142979031D01*
X75452138Y-142475982D01*
X76177857Y-142078569D01*
X76983446Y-141790631D01*
X77841183Y-141616008D01*
X78723341Y-141558542D01*
X79602198Y-141622073D01*
G36*
X140967512Y-135804269D02*
G01*
X141645516Y-135851810D01*
X142123076Y-135915033D01*
X143058734Y-136126516D01*
X144004908Y-136430008D01*
X144917988Y-136807273D01*
X145754364Y-137240076D01*
X146470426Y-137710178D01*
X146536261Y-137760498D01*
X147372932Y-138513101D01*
X148072808Y-139359983D01*
X148630811Y-140289007D01*
X149041865Y-141288036D01*
X149300891Y-142344935D01*
X149402812Y-143447567D01*
X149353239Y-144493893D01*
X149195926Y-145361287D01*
X148933505Y-146098006D01*
X148562750Y-146708626D01*
X148080434Y-147197728D01*
X147483331Y-147569890D01*
X147066000Y-147739860D01*
X146957972Y-147775693D01*
X146850331Y-147806762D01*
X146730496Y-147833508D01*
X146585887Y-147856373D01*
X146403920Y-147875798D01*
X146172016Y-147892225D01*
X145877593Y-147906094D01*
X145508069Y-147917849D01*
X145050863Y-147927929D01*
X144493395Y-147936777D01*
X143823082Y-147944834D01*
X143027343Y-147952542D01*
X142093598Y-147960342D01*
X141009264Y-147968675D01*
X140419666Y-147973083D01*
X134323666Y-148018500D01*
X134349552Y-148314834D01*
X134442232Y-148706021D01*
X134635957Y-149133704D01*
X134896300Y-149532780D01*
X135127481Y-149785960D01*
X135674823Y-150181420D01*
X136360316Y-150509046D01*
X136782616Y-150654478D01*
X137138266Y-150728474D01*
X137613727Y-150780072D01*
X138160878Y-150808636D01*
X138731600Y-150813530D01*
X139277773Y-150794115D01*
X139751279Y-150749756D01*
X140038666Y-150697565D01*
X140683937Y-150477118D01*
X141414334Y-150113889D01*
X142226643Y-149609561D01*
X142573920Y-149368601D01*
X142959318Y-149106534D01*
X143345955Y-148865512D01*
X143687664Y-148673080D01*
X143928587Y-148560378D01*
X144522176Y-148422087D01*
X145124707Y-148436827D01*
X145706259Y-148592816D01*
X146236912Y-148878273D01*
X146686747Y-149281414D01*
X147019456Y-149777540D01*
X147211048Y-150335480D01*
X147237025Y-150909625D01*
X147096919Y-151501454D01*
X146790262Y-152112452D01*
X146316585Y-152744099D01*
X145960682Y-153124959D01*
X144968585Y-154004138D01*
X143902797Y-154732945D01*
X142768592Y-155308767D01*
X141571242Y-155728990D01*
X140316021Y-155991004D01*
X140125554Y-156016194D01*
X139627964Y-156059206D01*
X139023514Y-156084016D01*
X138369046Y-156090704D01*
X137721402Y-156079350D01*
X137137424Y-156050032D01*
X136736666Y-156011452D01*
X135474338Y-155770574D01*
X134296831Y-155389559D01*
X133211565Y-154874715D01*
X132225961Y-154232353D01*
X131347440Y-153468781D01*
X130583424Y-152590310D01*
X129941333Y-151603247D01*
X129428589Y-150513904D01*
X129102259Y-149520669D01*
X128999236Y-149009709D01*
X128925263Y-148377648D01*
X128881570Y-147670421D01*
X128869388Y-146933960D01*
X128871014Y-146877021D01*
X129888878Y-146877021D01*
X129901904Y-147643731D01*
X129955988Y-148381127D01*
X130049376Y-149037021D01*
X130124457Y-149373167D01*
X130491307Y-150436935D01*
X131000900Y-151413871D01*
X131648488Y-152295860D01*
X132133803Y-152807361D01*
X132651417Y-153273830D01*
X133138048Y-153642723D01*
X133656788Y-153957256D01*
X134224326Y-154239326D01*
X135232651Y-154622457D01*
X136341545Y-154894033D01*
X137520774Y-155050039D01*
X138740106Y-155086458D01*
X139956221Y-155000872D01*
X141174315Y-154773124D01*
X142314277Y-154395252D01*
X143378417Y-153866139D01*
X144369043Y-153184666D01*
X145154655Y-152485130D01*
X145661136Y-151926212D01*
X146005909Y-151415243D01*
X146189233Y-150950758D01*
X146211362Y-150531293D01*
X146072553Y-150155383D01*
X145773064Y-149821564D01*
X145638746Y-149720204D01*
X145192574Y-149500995D01*
X144722109Y-149431129D01*
X144323093Y-149497276D01*
X144124503Y-149589473D01*
X143835506Y-149756695D01*
X143500873Y-149971983D01*
X143276055Y-150127812D01*
X142465926Y-150679253D01*
X141732829Y-151111333D01*
X141045020Y-151434469D01*
X140370757Y-151659077D01*
X139678295Y-151795572D01*
X138935893Y-151854371D01*
X138111807Y-151845890D01*
X138049000Y-151842986D01*
X137101603Y-151753132D01*
X136281886Y-151576350D01*
X135567479Y-151304194D01*
X134936017Y-150928222D01*
X134385147Y-150459867D01*
X133873048Y-149848221D01*
X133521655Y-149183342D01*
X133330590Y-148464196D01*
X133299471Y-147689751D01*
X133311259Y-147539893D01*
X133365533Y-146976619D01*
X139855933Y-146939680D01*
X141101781Y-146932539D01*
X142190025Y-146925710D01*
X143132388Y-146918401D01*
X143940597Y-146909817D01*
X144626376Y-146899166D01*
X145201450Y-146885654D01*
X145677545Y-146868489D01*
X146066384Y-146846876D01*
X146379693Y-146820023D01*
X146629198Y-146787137D01*
X146826623Y-146747424D01*
X146983692Y-146700090D01*
X147112132Y-146644344D01*
X147223666Y-146579391D01*
X147330021Y-146504439D01*
X147431820Y-146427152D01*
X147701659Y-146146892D01*
X147952936Y-145752861D01*
X148154620Y-145300162D01*
X148250819Y-144972792D01*
X148306021Y-144591614D01*
X148334687Y-144097033D01*
X148337518Y-143542774D01*
X148315212Y-142982563D01*
X148268472Y-142470126D01*
X148213771Y-142129789D01*
X147937185Y-141205747D01*
X147512839Y-140349233D01*
X146951272Y-139567639D01*
X146263019Y-138868360D01*
X145458618Y-138258788D01*
X144548606Y-137746318D01*
X143543521Y-137338343D01*
X142453899Y-137042258D01*
X141290278Y-136865455D01*
X140650447Y-136822765D01*
X139357313Y-136831297D01*
X138162673Y-136963930D01*
X137043559Y-137226776D01*
X135977003Y-137625949D01*
X134940040Y-138167562D01*
X134460532Y-138470285D01*
X133422333Y-139260910D01*
X132500397Y-140169118D01*
X131702855Y-141182180D01*
X131037837Y-142287371D01*
X130513472Y-143471961D01*
X130137890Y-144723224D01*
X129993020Y-145464408D01*
X129918665Y-146133184D01*
X129888878Y-146877021D01*
X128871014Y-146877021D01*
X128889948Y-146214197D01*
X128944483Y-145557067D01*
X128987765Y-145248779D01*
X129299885Y-143884949D01*
X129773347Y-142566057D01*
X130403412Y-141304013D01*
X130832934Y-140611458D01*
X131126399Y-140218952D01*
X131518934Y-139761152D01*
X131976380Y-139272205D01*
X132464577Y-138786259D01*
X132949366Y-138337460D01*
X133396587Y-137959954D01*
X133731000Y-137714460D01*
X134935858Y-137005810D01*
X136155510Y-136461232D01*
X137402931Y-136075476D01*
X138169752Y-135918132D01*
X138770676Y-135844150D01*
X139474403Y-135800482D01*
X140225245Y-135787174D01*
X140967512Y-135804269D01*
G37*
X140967512Y-135804269D02*
X141645516Y-135851810D01*
X142123076Y-135915033D01*
X143058734Y-136126516D01*
X144004908Y-136430008D01*
X144917988Y-136807273D01*
X145754364Y-137240076D01*
X146470426Y-137710178D01*
X146536261Y-137760498D01*
X147372932Y-138513101D01*
X148072808Y-139359983D01*
X148630811Y-140289007D01*
X149041865Y-141288036D01*
X149300891Y-142344935D01*
X149402812Y-143447567D01*
X149353239Y-144493893D01*
X149195926Y-145361287D01*
X148933505Y-146098006D01*
X148562750Y-146708626D01*
X148080434Y-147197728D01*
X147483331Y-147569890D01*
X147066000Y-147739860D01*
X146957972Y-147775693D01*
X146850331Y-147806762D01*
X146730496Y-147833508D01*
X146585887Y-147856373D01*
X146403920Y-147875798D01*
X146172016Y-147892225D01*
X145877593Y-147906094D01*
X145508069Y-147917849D01*
X145050863Y-147927929D01*
X144493395Y-147936777D01*
X143823082Y-147944834D01*
X143027343Y-147952542D01*
X142093598Y-147960342D01*
X141009264Y-147968675D01*
X140419666Y-147973083D01*
X134323666Y-148018500D01*
X134349552Y-148314834D01*
X134442232Y-148706021D01*
X134635957Y-149133704D01*
X134896300Y-149532780D01*
X135127481Y-149785960D01*
X135674823Y-150181420D01*
X136360316Y-150509046D01*
X136782616Y-150654478D01*
X137138266Y-150728474D01*
X137613727Y-150780072D01*
X138160878Y-150808636D01*
X138731600Y-150813530D01*
X139277773Y-150794115D01*
X139751279Y-150749756D01*
X140038666Y-150697565D01*
X140683937Y-150477118D01*
X141414334Y-150113889D01*
X142226643Y-149609561D01*
X142573920Y-149368601D01*
X142959318Y-149106534D01*
X143345955Y-148865512D01*
X143687664Y-148673080D01*
X143928587Y-148560378D01*
X144522176Y-148422087D01*
X145124707Y-148436827D01*
X145706259Y-148592816D01*
X146236912Y-148878273D01*
X146686747Y-149281414D01*
X147019456Y-149777540D01*
X147211048Y-150335480D01*
X147237025Y-150909625D01*
X147096919Y-151501454D01*
X146790262Y-152112452D01*
X146316585Y-152744099D01*
X145960682Y-153124959D01*
X144968585Y-154004138D01*
X143902797Y-154732945D01*
X142768592Y-155308767D01*
X141571242Y-155728990D01*
X140316021Y-155991004D01*
X140125554Y-156016194D01*
X139627964Y-156059206D01*
X139023514Y-156084016D01*
X138369046Y-156090704D01*
X137721402Y-156079350D01*
X137137424Y-156050032D01*
X136736666Y-156011452D01*
X135474338Y-155770574D01*
X134296831Y-155389559D01*
X133211565Y-154874715D01*
X132225961Y-154232353D01*
X131347440Y-153468781D01*
X130583424Y-152590310D01*
X129941333Y-151603247D01*
X129428589Y-150513904D01*
X129102259Y-149520669D01*
X128999236Y-149009709D01*
X128925263Y-148377648D01*
X128881570Y-147670421D01*
X128869388Y-146933960D01*
X128871014Y-146877021D01*
X129888878Y-146877021D01*
X129901904Y-147643731D01*
X129955988Y-148381127D01*
X130049376Y-149037021D01*
X130124457Y-149373167D01*
X130491307Y-150436935D01*
X131000900Y-151413871D01*
X131648488Y-152295860D01*
X132133803Y-152807361D01*
X132651417Y-153273830D01*
X133138048Y-153642723D01*
X133656788Y-153957256D01*
X134224326Y-154239326D01*
X135232651Y-154622457D01*
X136341545Y-154894033D01*
X137520774Y-155050039D01*
X138740106Y-155086458D01*
X139956221Y-155000872D01*
X141174315Y-154773124D01*
X142314277Y-154395252D01*
X143378417Y-153866139D01*
X144369043Y-153184666D01*
X145154655Y-152485130D01*
X145661136Y-151926212D01*
X146005909Y-151415243D01*
X146189233Y-150950758D01*
X146211362Y-150531293D01*
X146072553Y-150155383D01*
X145773064Y-149821564D01*
X145638746Y-149720204D01*
X145192574Y-149500995D01*
X144722109Y-149431129D01*
X144323093Y-149497276D01*
X144124503Y-149589473D01*
X143835506Y-149756695D01*
X143500873Y-149971983D01*
X143276055Y-150127812D01*
X142465926Y-150679253D01*
X141732829Y-151111333D01*
X141045020Y-151434469D01*
X140370757Y-151659077D01*
X139678295Y-151795572D01*
X138935893Y-151854371D01*
X138111807Y-151845890D01*
X138049000Y-151842986D01*
X137101603Y-151753132D01*
X136281886Y-151576350D01*
X135567479Y-151304194D01*
X134936017Y-150928222D01*
X134385147Y-150459867D01*
X133873048Y-149848221D01*
X133521655Y-149183342D01*
X133330590Y-148464196D01*
X133299471Y-147689751D01*
X133311259Y-147539893D01*
X133365533Y-146976619D01*
X139855933Y-146939680D01*
X141101781Y-146932539D01*
X142190025Y-146925710D01*
X143132388Y-146918401D01*
X143940597Y-146909817D01*
X144626376Y-146899166D01*
X145201450Y-146885654D01*
X145677545Y-146868489D01*
X146066384Y-146846876D01*
X146379693Y-146820023D01*
X146629198Y-146787137D01*
X146826623Y-146747424D01*
X146983692Y-146700090D01*
X147112132Y-146644344D01*
X147223666Y-146579391D01*
X147330021Y-146504439D01*
X147431820Y-146427152D01*
X147701659Y-146146892D01*
X147952936Y-145752861D01*
X148154620Y-145300162D01*
X148250819Y-144972792D01*
X148306021Y-144591614D01*
X148334687Y-144097033D01*
X148337518Y-143542774D01*
X148315212Y-142982563D01*
X148268472Y-142470126D01*
X148213771Y-142129789D01*
X147937185Y-141205747D01*
X147512839Y-140349233D01*
X146951272Y-139567639D01*
X146263019Y-138868360D01*
X145458618Y-138258788D01*
X144548606Y-137746318D01*
X143543521Y-137338343D01*
X142453899Y-137042258D01*
X141290278Y-136865455D01*
X140650447Y-136822765D01*
X139357313Y-136831297D01*
X138162673Y-136963930D01*
X137043559Y-137226776D01*
X135977003Y-137625949D01*
X134940040Y-138167562D01*
X134460532Y-138470285D01*
X133422333Y-139260910D01*
X132500397Y-140169118D01*
X131702855Y-141182180D01*
X131037837Y-142287371D01*
X130513472Y-143471961D01*
X130137890Y-144723224D01*
X129993020Y-145464408D01*
X129918665Y-146133184D01*
X129888878Y-146877021D01*
X128871014Y-146877021D01*
X128889948Y-146214197D01*
X128944483Y-145557067D01*
X128987765Y-145248779D01*
X129299885Y-143884949D01*
X129773347Y-142566057D01*
X130403412Y-141304013D01*
X130832934Y-140611458D01*
X131126399Y-140218952D01*
X131518934Y-139761152D01*
X131976380Y-139272205D01*
X132464577Y-138786259D01*
X132949366Y-138337460D01*
X133396587Y-137959954D01*
X133731000Y-137714460D01*
X134935858Y-137005810D01*
X136155510Y-136461232D01*
X137402931Y-136075476D01*
X138169752Y-135918132D01*
X138770676Y-135844150D01*
X139474403Y-135800482D01*
X140225245Y-135787174D01*
X140967512Y-135804269D01*
M02*
